<?xml version="1.0" encoding="utf-8" standalone="no"?>
<!DOCTYPE svg PUBLIC "-//W3C//DTD SVG 1.1//EN"
  "http://www.w3.org/Graphics/SVG/1.1/DTD/svg11.dtd">
<svg xmlns:xlink="http://www.w3.org/1999/xlink" width="720pt" height="216pt" viewBox="0 0 720 216" xmlns="http://www.w3.org/2000/svg" version="1.1">
 <metadata>
  <rdf:RDF xmlns:dc="http://purl.org/dc/elements/1.1/" xmlns:cc="http://creativecommons.org/ns#" xmlns:rdf="http://www.w3.org/1999/02/22-rdf-syntax-ns#">
   <cc:Work>
    <dc:type rdf:resource="http://purl.org/dc/dcmitype/StillImage"/>
    <dc:date>2025-03-04T21:02:05.348463</dc:date>
    <dc:format>image/svg+xml</dc:format>
    <dc:creator>
     <cc:Agent>
      <dc:title>Matplotlib v3.9.2, https://matplotlib.org/</dc:title>
     </cc:Agent>
    </dc:creator>
   </cc:Work>
  </rdf:RDF>
 </metadata>
 <defs>
  <style type="text/css">*{stroke-linejoin: round; stroke-linecap: butt}</style>
 </defs>
 <g id="figure_1">
  <g id="patch_1">
   <path d="M 0 216 
L 720 216 
L 720 0 
L 0 0 
z
" style="fill: #ffffff"/>
  </g>
  <g id="axes_1">
   <g id="patch_2">
    <path d="M 52.30649 182.64351 
L 355.867969 182.64351 
L 355.867969 18.118365 
L 52.30649 18.118365 
z
" style="fill: #ffffff"/>
   </g>
   <g id="matplotlib.axis_1">
    <g id="xtick_1">
     <g id="line2d_1">
      <defs>
       <path id="m451ed1235d" d="M 0 0 
L 0 3.5 
" style="stroke: #000000; stroke-width: 0.8"/>
      </defs>
      <g>
       <use xlink:href="#m451ed1235d" x="71.624039" y="182.64351" style="stroke: #000000; stroke-width: 0.8"/>
      </g>
     </g>
     <g id="text_1">
      <!-- −0.10 -->
      <g transform="translate(56.301382 197.241948) scale(0.1 -0.1)">
       <defs>
        <path id="DejaVuSans-2212" d="M 678 2272 
L 4684 2272 
L 4684 1741 
L 678 1741 
L 678 2272 
z
" transform="scale(0.015625)"/>
        <path id="DejaVuSans-30" d="M 2034 4250 
Q 1547 4250 1301 3770 
Q 1056 3291 1056 2328 
Q 1056 1369 1301 889 
Q 1547 409 2034 409 
Q 2525 409 2770 889 
Q 3016 1369 3016 2328 
Q 3016 3291 2770 3770 
Q 2525 4250 2034 4250 
z
M 2034 4750 
Q 2819 4750 3233 4129 
Q 3647 3509 3647 2328 
Q 3647 1150 3233 529 
Q 2819 -91 2034 -91 
Q 1250 -91 836 529 
Q 422 1150 422 2328 
Q 422 3509 836 4129 
Q 1250 4750 2034 4750 
z
" transform="scale(0.015625)"/>
        <path id="DejaVuSans-2e" d="M 684 794 
L 1344 794 
L 1344 0 
L 684 0 
L 684 794 
z
" transform="scale(0.015625)"/>
        <path id="DejaVuSans-31" d="M 794 531 
L 1825 531 
L 1825 4091 
L 703 3866 
L 703 4441 
L 1819 4666 
L 2450 4666 
L 2450 531 
L 3481 531 
L 3481 0 
L 794 0 
L 794 531 
z
" transform="scale(0.015625)"/>
       </defs>
       <use xlink:href="#DejaVuSans-2212"/>
       <use xlink:href="#DejaVuSans-30" x="83.789062"/>
       <use xlink:href="#DejaVuSans-2e" x="147.412109"/>
       <use xlink:href="#DejaVuSans-31" x="179.199219"/>
       <use xlink:href="#DejaVuSans-30" x="242.822266"/>
      </g>
     </g>
    </g>
    <g id="xtick_2">
     <g id="line2d_2">
      <g>
       <use xlink:href="#m451ed1235d" x="137.855634" y="182.64351" style="stroke: #000000; stroke-width: 0.8"/>
      </g>
     </g>
     <g id="text_2">
      <!-- −0.05 -->
      <g transform="translate(122.532978 197.241948) scale(0.1 -0.1)">
       <defs>
        <path id="DejaVuSans-35" d="M 691 4666 
L 3169 4666 
L 3169 4134 
L 1269 4134 
L 1269 2991 
Q 1406 3038 1543 3061 
Q 1681 3084 1819 3084 
Q 2600 3084 3056 2656 
Q 3513 2228 3513 1497 
Q 3513 744 3044 326 
Q 2575 -91 1722 -91 
Q 1428 -91 1123 -41 
Q 819 9 494 109 
L 494 744 
Q 775 591 1075 516 
Q 1375 441 1709 441 
Q 2250 441 2565 725 
Q 2881 1009 2881 1497 
Q 2881 1984 2565 2268 
Q 2250 2553 1709 2553 
Q 1456 2553 1204 2497 
Q 953 2441 691 2322 
L 691 4666 
z
" transform="scale(0.015625)"/>
       </defs>
       <use xlink:href="#DejaVuSans-2212"/>
       <use xlink:href="#DejaVuSans-30" x="83.789062"/>
       <use xlink:href="#DejaVuSans-2e" x="147.412109"/>
       <use xlink:href="#DejaVuSans-30" x="179.199219"/>
       <use xlink:href="#DejaVuSans-35" x="242.822266"/>
      </g>
     </g>
    </g>
    <g id="xtick_3">
     <g id="line2d_3">
      <g>
       <use xlink:href="#m451ed1235d" x="204.087229" y="182.64351" style="stroke: #000000; stroke-width: 0.8"/>
      </g>
     </g>
     <g id="text_3">
      <!-- 0.00 -->
      <g transform="translate(192.954417 197.241948) scale(0.1 -0.1)">
       <use xlink:href="#DejaVuSans-30"/>
       <use xlink:href="#DejaVuSans-2e" x="63.623047"/>
       <use xlink:href="#DejaVuSans-30" x="95.410156"/>
       <use xlink:href="#DejaVuSans-30" x="159.033203"/>
      </g>
     </g>
    </g>
    <g id="xtick_4">
     <g id="line2d_4">
      <g>
       <use xlink:href="#m451ed1235d" x="270.318825" y="182.64351" style="stroke: #000000; stroke-width: 0.8"/>
      </g>
     </g>
     <g id="text_4">
      <!-- 0.05 -->
      <g transform="translate(259.186012 197.241948) scale(0.1 -0.1)">
       <use xlink:href="#DejaVuSans-30"/>
       <use xlink:href="#DejaVuSans-2e" x="63.623047"/>
       <use xlink:href="#DejaVuSans-30" x="95.410156"/>
       <use xlink:href="#DejaVuSans-35" x="159.033203"/>
      </g>
     </g>
    </g>
    <g id="xtick_5">
     <g id="line2d_5">
      <g>
       <use xlink:href="#m451ed1235d" x="336.55042" y="182.64351" style="stroke: #000000; stroke-width: 0.8"/>
      </g>
     </g>
     <g id="text_5">
      <!-- 0.10 -->
      <g transform="translate(325.417608 197.241948) scale(0.1 -0.1)">
       <use xlink:href="#DejaVuSans-30"/>
       <use xlink:href="#DejaVuSans-2e" x="63.623047"/>
       <use xlink:href="#DejaVuSans-31" x="95.410156"/>
       <use xlink:href="#DejaVuSans-30" x="159.033203"/>
      </g>
     </g>
    </g>
    <g id="text_6">
     <!-- Time [d] -->
     <g transform="translate(183.188792 210.920073) scale(0.1 -0.1)">
      <defs>
       <path id="DejaVuSans-54" d="M -19 4666 
L 3928 4666 
L 3928 4134 
L 2272 4134 
L 2272 0 
L 1638 0 
L 1638 4134 
L -19 4134 
L -19 4666 
z
" transform="scale(0.015625)"/>
       <path id="DejaVuSans-69" d="M 603 3500 
L 1178 3500 
L 1178 0 
L 603 0 
L 603 3500 
z
M 603 4863 
L 1178 4863 
L 1178 4134 
L 603 4134 
L 603 4863 
z
" transform="scale(0.015625)"/>
       <path id="DejaVuSans-6d" d="M 3328 2828 
Q 3544 3216 3844 3400 
Q 4144 3584 4550 3584 
Q 5097 3584 5394 3201 
Q 5691 2819 5691 2113 
L 5691 0 
L 5113 0 
L 5113 2094 
Q 5113 2597 4934 2840 
Q 4756 3084 4391 3084 
Q 3944 3084 3684 2787 
Q 3425 2491 3425 1978 
L 3425 0 
L 2847 0 
L 2847 2094 
Q 2847 2600 2669 2842 
Q 2491 3084 2119 3084 
Q 1678 3084 1418 2786 
Q 1159 2488 1159 1978 
L 1159 0 
L 581 0 
L 581 3500 
L 1159 3500 
L 1159 2956 
Q 1356 3278 1631 3431 
Q 1906 3584 2284 3584 
Q 2666 3584 2933 3390 
Q 3200 3197 3328 2828 
z
" transform="scale(0.015625)"/>
       <path id="DejaVuSans-65" d="M 3597 1894 
L 3597 1613 
L 953 1613 
Q 991 1019 1311 708 
Q 1631 397 2203 397 
Q 2534 397 2845 478 
Q 3156 559 3463 722 
L 3463 178 
Q 3153 47 2828 -22 
Q 2503 -91 2169 -91 
Q 1331 -91 842 396 
Q 353 884 353 1716 
Q 353 2575 817 3079 
Q 1281 3584 2069 3584 
Q 2775 3584 3186 3129 
Q 3597 2675 3597 1894 
z
M 3022 2063 
Q 3016 2534 2758 2815 
Q 2500 3097 2075 3097 
Q 1594 3097 1305 2825 
Q 1016 2553 972 2059 
L 3022 2063 
z
" transform="scale(0.015625)"/>
       <path id="DejaVuSans-20" transform="scale(0.015625)"/>
       <path id="DejaVuSans-5b" d="M 550 4863 
L 1875 4863 
L 1875 4416 
L 1125 4416 
L 1125 -397 
L 1875 -397 
L 1875 -844 
L 550 -844 
L 550 4863 
z
" transform="scale(0.015625)"/>
       <path id="DejaVuSans-64" d="M 2906 2969 
L 2906 4863 
L 3481 4863 
L 3481 0 
L 2906 0 
L 2906 525 
Q 2725 213 2448 61 
Q 2172 -91 1784 -91 
Q 1150 -91 751 415 
Q 353 922 353 1747 
Q 353 2572 751 3078 
Q 1150 3584 1784 3584 
Q 2172 3584 2448 3432 
Q 2725 3281 2906 2969 
z
M 947 1747 
Q 947 1113 1208 752 
Q 1469 391 1925 391 
Q 2381 391 2643 752 
Q 2906 1113 2906 1747 
Q 2906 2381 2643 2742 
Q 2381 3103 1925 3103 
Q 1469 3103 1208 2742 
Q 947 2381 947 1747 
z
" transform="scale(0.015625)"/>
       <path id="DejaVuSans-5d" d="M 1947 4863 
L 1947 -844 
L 622 -844 
L 622 -397 
L 1369 -397 
L 1369 4416 
L 622 4416 
L 622 4863 
L 1947 4863 
z
" transform="scale(0.015625)"/>
      </defs>
      <use xlink:href="#DejaVuSans-54"/>
      <use xlink:href="#DejaVuSans-69" x="57.958984"/>
      <use xlink:href="#DejaVuSans-6d" x="85.742188"/>
      <use xlink:href="#DejaVuSans-65" x="183.154297"/>
      <use xlink:href="#DejaVuSans-20" x="244.677734"/>
      <use xlink:href="#DejaVuSans-5b" x="276.464844"/>
      <use xlink:href="#DejaVuSans-64" x="315.478516"/>
      <use xlink:href="#DejaVuSans-5d" x="378.955078"/>
     </g>
    </g>
   </g>
   <g id="matplotlib.axis_2">
    <g id="ytick_1">
     <g id="line2d_6">
      <defs>
       <path id="mdb289e4d5d" d="M 0 0 
L -3.5 0 
" style="stroke: #000000; stroke-width: 0.8"/>
      </defs>
      <g>
       <use xlink:href="#mdb289e4d5d" x="52.30649" y="157.063819" style="stroke: #000000; stroke-width: 0.8"/>
      </g>
     </g>
     <g id="text_7">
      <!-- 0.990 -->
      <g transform="translate(16.678365 160.863037) scale(0.1 -0.1)">
       <defs>
        <path id="DejaVuSans-39" d="M 703 97 
L 703 672 
Q 941 559 1184 500 
Q 1428 441 1663 441 
Q 2288 441 2617 861 
Q 2947 1281 2994 2138 
Q 2813 1869 2534 1725 
Q 2256 1581 1919 1581 
Q 1219 1581 811 2004 
Q 403 2428 403 3163 
Q 403 3881 828 4315 
Q 1253 4750 1959 4750 
Q 2769 4750 3195 4129 
Q 3622 3509 3622 2328 
Q 3622 1225 3098 567 
Q 2575 -91 1691 -91 
Q 1453 -91 1209 -44 
Q 966 3 703 97 
z
M 1959 2075 
Q 2384 2075 2632 2365 
Q 2881 2656 2881 3163 
Q 2881 3666 2632 3958 
Q 2384 4250 1959 4250 
Q 1534 4250 1286 3958 
Q 1038 3666 1038 3163 
Q 1038 2656 1286 2365 
Q 1534 2075 1959 2075 
z
" transform="scale(0.015625)"/>
       </defs>
       <use xlink:href="#DejaVuSans-30"/>
       <use xlink:href="#DejaVuSans-2e" x="63.623047"/>
       <use xlink:href="#DejaVuSans-39" x="95.410156"/>
       <use xlink:href="#DejaVuSans-39" x="159.033203"/>
       <use xlink:href="#DejaVuSans-30" x="222.65625"/>
      </g>
     </g>
    </g>
    <g id="ytick_2">
     <g id="line2d_7">
      <g>
       <use xlink:href="#mdb289e4d5d" x="52.30649" y="131.337593" style="stroke: #000000; stroke-width: 0.8"/>
      </g>
     </g>
     <g id="text_8">
      <!-- 0.992 -->
      <g transform="translate(16.678365 135.136812) scale(0.1 -0.1)">
       <defs>
        <path id="DejaVuSans-32" d="M 1228 531 
L 3431 531 
L 3431 0 
L 469 0 
L 469 531 
Q 828 903 1448 1529 
Q 2069 2156 2228 2338 
Q 2531 2678 2651 2914 
Q 2772 3150 2772 3378 
Q 2772 3750 2511 3984 
Q 2250 4219 1831 4219 
Q 1534 4219 1204 4116 
Q 875 4013 500 3803 
L 500 4441 
Q 881 4594 1212 4672 
Q 1544 4750 1819 4750 
Q 2544 4750 2975 4387 
Q 3406 4025 3406 3419 
Q 3406 3131 3298 2873 
Q 3191 2616 2906 2266 
Q 2828 2175 2409 1742 
Q 1991 1309 1228 531 
z
" transform="scale(0.015625)"/>
       </defs>
       <use xlink:href="#DejaVuSans-30"/>
       <use xlink:href="#DejaVuSans-2e" x="63.623047"/>
       <use xlink:href="#DejaVuSans-39" x="95.410156"/>
       <use xlink:href="#DejaVuSans-39" x="159.033203"/>
       <use xlink:href="#DejaVuSans-32" x="222.65625"/>
      </g>
     </g>
    </g>
    <g id="ytick_3">
     <g id="line2d_8">
      <g>
       <use xlink:href="#mdb289e4d5d" x="52.30649" y="105.611367" style="stroke: #000000; stroke-width: 0.8"/>
      </g>
     </g>
     <g id="text_9">
      <!-- 0.994 -->
      <g transform="translate(16.678365 109.410586) scale(0.1 -0.1)">
       <defs>
        <path id="DejaVuSans-34" d="M 2419 4116 
L 825 1625 
L 2419 1625 
L 2419 4116 
z
M 2253 4666 
L 3047 4666 
L 3047 1625 
L 3713 1625 
L 3713 1100 
L 3047 1100 
L 3047 0 
L 2419 0 
L 2419 1100 
L 313 1100 
L 313 1709 
L 2253 4666 
z
" transform="scale(0.015625)"/>
       </defs>
       <use xlink:href="#DejaVuSans-30"/>
       <use xlink:href="#DejaVuSans-2e" x="63.623047"/>
       <use xlink:href="#DejaVuSans-39" x="95.410156"/>
       <use xlink:href="#DejaVuSans-39" x="159.033203"/>
       <use xlink:href="#DejaVuSans-34" x="222.65625"/>
      </g>
     </g>
    </g>
    <g id="ytick_4">
     <g id="line2d_9">
      <g>
       <use xlink:href="#mdb289e4d5d" x="52.30649" y="79.885141" style="stroke: #000000; stroke-width: 0.8"/>
      </g>
     </g>
     <g id="text_10">
      <!-- 0.996 -->
      <g transform="translate(16.678365 83.68436) scale(0.1 -0.1)">
       <defs>
        <path id="DejaVuSans-36" d="M 2113 2584 
Q 1688 2584 1439 2293 
Q 1191 2003 1191 1497 
Q 1191 994 1439 701 
Q 1688 409 2113 409 
Q 2538 409 2786 701 
Q 3034 994 3034 1497 
Q 3034 2003 2786 2293 
Q 2538 2584 2113 2584 
z
M 3366 4563 
L 3366 3988 
Q 3128 4100 2886 4159 
Q 2644 4219 2406 4219 
Q 1781 4219 1451 3797 
Q 1122 3375 1075 2522 
Q 1259 2794 1537 2939 
Q 1816 3084 2150 3084 
Q 2853 3084 3261 2657 
Q 3669 2231 3669 1497 
Q 3669 778 3244 343 
Q 2819 -91 2113 -91 
Q 1303 -91 875 529 
Q 447 1150 447 2328 
Q 447 3434 972 4092 
Q 1497 4750 2381 4750 
Q 2619 4750 2861 4703 
Q 3103 4656 3366 4563 
z
" transform="scale(0.015625)"/>
       </defs>
       <use xlink:href="#DejaVuSans-30"/>
       <use xlink:href="#DejaVuSans-2e" x="63.623047"/>
       <use xlink:href="#DejaVuSans-39" x="95.410156"/>
       <use xlink:href="#DejaVuSans-39" x="159.033203"/>
       <use xlink:href="#DejaVuSans-36" x="222.65625"/>
      </g>
     </g>
    </g>
    <g id="ytick_5">
     <g id="line2d_10">
      <g>
       <use xlink:href="#mdb289e4d5d" x="52.30649" y="54.158915" style="stroke: #000000; stroke-width: 0.8"/>
      </g>
     </g>
     <g id="text_11">
      <!-- 0.998 -->
      <g transform="translate(16.678365 57.958134) scale(0.1 -0.1)">
       <defs>
        <path id="DejaVuSans-38" d="M 2034 2216 
Q 1584 2216 1326 1975 
Q 1069 1734 1069 1313 
Q 1069 891 1326 650 
Q 1584 409 2034 409 
Q 2484 409 2743 651 
Q 3003 894 3003 1313 
Q 3003 1734 2745 1975 
Q 2488 2216 2034 2216 
z
M 1403 2484 
Q 997 2584 770 2862 
Q 544 3141 544 3541 
Q 544 4100 942 4425 
Q 1341 4750 2034 4750 
Q 2731 4750 3128 4425 
Q 3525 4100 3525 3541 
Q 3525 3141 3298 2862 
Q 3072 2584 2669 2484 
Q 3125 2378 3379 2068 
Q 3634 1759 3634 1313 
Q 3634 634 3220 271 
Q 2806 -91 2034 -91 
Q 1263 -91 848 271 
Q 434 634 434 1313 
Q 434 1759 690 2068 
Q 947 2378 1403 2484 
z
M 1172 3481 
Q 1172 3119 1398 2916 
Q 1625 2713 2034 2713 
Q 2441 2713 2670 2916 
Q 2900 3119 2900 3481 
Q 2900 3844 2670 4047 
Q 2441 4250 2034 4250 
Q 1625 4250 1398 4047 
Q 1172 3844 1172 3481 
z
" transform="scale(0.015625)"/>
       </defs>
       <use xlink:href="#DejaVuSans-30"/>
       <use xlink:href="#DejaVuSans-2e" x="63.623047"/>
       <use xlink:href="#DejaVuSans-39" x="95.410156"/>
       <use xlink:href="#DejaVuSans-39" x="159.033203"/>
       <use xlink:href="#DejaVuSans-38" x="222.65625"/>
      </g>
     </g>
    </g>
    <g id="ytick_6">
     <g id="line2d_11">
      <g>
       <use xlink:href="#mdb289e4d5d" x="52.30649" y="28.432689" style="stroke: #000000; stroke-width: 0.8"/>
      </g>
     </g>
     <g id="text_12">
      <!-- 1.000 -->
      <g transform="translate(16.678365 32.231908) scale(0.1 -0.1)">
       <use xlink:href="#DejaVuSans-31"/>
       <use xlink:href="#DejaVuSans-2e" x="63.623047"/>
       <use xlink:href="#DejaVuSans-30" x="95.410156"/>
       <use xlink:href="#DejaVuSans-30" x="159.033203"/>
       <use xlink:href="#DejaVuSans-30" x="222.65625"/>
      </g>
     </g>
    </g>
    <g id="text_13">
     <!-- Flux -->
     <g transform="translate(10.598678 110.773906) rotate(-90) scale(0.1 -0.1)">
      <defs>
       <path id="DejaVuSans-46" d="M 628 4666 
L 3309 4666 
L 3309 4134 
L 1259 4134 
L 1259 2759 
L 3109 2759 
L 3109 2228 
L 1259 2228 
L 1259 0 
L 628 0 
L 628 4666 
z
" transform="scale(0.015625)"/>
       <path id="DejaVuSans-6c" d="M 603 4863 
L 1178 4863 
L 1178 0 
L 603 0 
L 603 4863 
z
" transform="scale(0.015625)"/>
       <path id="DejaVuSans-75" d="M 544 1381 
L 544 3500 
L 1119 3500 
L 1119 1403 
Q 1119 906 1312 657 
Q 1506 409 1894 409 
Q 2359 409 2629 706 
Q 2900 1003 2900 1516 
L 2900 3500 
L 3475 3500 
L 3475 0 
L 2900 0 
L 2900 538 
Q 2691 219 2414 64 
Q 2138 -91 1772 -91 
Q 1169 -91 856 284 
Q 544 659 544 1381 
z
M 1991 3584 
L 1991 3584 
z
" transform="scale(0.015625)"/>
       <path id="DejaVuSans-78" d="M 3513 3500 
L 2247 1797 
L 3578 0 
L 2900 0 
L 1881 1375 
L 863 0 
L 184 0 
L 1544 1831 
L 300 3500 
L 978 3500 
L 1906 2253 
L 2834 3500 
L 3513 3500 
z
" transform="scale(0.015625)"/>
      </defs>
      <use xlink:href="#DejaVuSans-46"/>
      <use xlink:href="#DejaVuSans-6c" x="57.519531"/>
      <use xlink:href="#DejaVuSans-75" x="85.302734"/>
      <use xlink:href="#DejaVuSans-78" x="148.681641"/>
     </g>
    </g>
   </g>
   <g id="line2d_12">
    <defs>
     <path id="m9e60e6edbb" d="M 0 1.5 
C 0.397805 1.5 0.77937 1.341951 1.06066 1.06066 
C 1.341951 0.77937 1.5 0.397805 1.5 0 
C 1.5 -0.397805 1.341951 -0.77937 1.06066 -1.06066 
C 0.77937 -1.341951 0.397805 -1.5 0 -1.5 
C -0.397805 -1.5 -0.77937 -1.341951 -1.06066 -1.06066 
C -1.341951 -0.77937 -1.5 -0.397805 -1.5 0 
C -1.5 0.397805 -1.341951 0.77937 -1.06066 1.06066 
C -0.77937 1.341951 -0.397805 1.5 0 1.5 
z
" style="stroke: #1f77b4"/>
    </defs>
    <g clip-path="url(#p3abcf58314)">
     <use xlink:href="#m9e60e6edbb" x="66.104739" y="28.7267" style="fill: #1f77b4; stroke: #1f77b4"/>
     <use xlink:href="#m9e60e6edbb" x="67.027699" y="29.962255" style="fill: #1f77b4; stroke: #1f77b4"/>
     <use xlink:href="#m9e60e6edbb" x="67.950659" y="28.17797" style="fill: #1f77b4; stroke: #1f77b4"/>
     <use xlink:href="#m9e60e6edbb" x="68.873618" y="28.926411" style="fill: #1f77b4; stroke: #1f77b4"/>
     <use xlink:href="#m9e60e6edbb" x="69.796578" y="26.570453" style="fill: #1f77b4; stroke: #1f77b4"/>
     <use xlink:href="#m9e60e6edbb" x="70.719538" y="26.961501" style="fill: #1f77b4; stroke: #1f77b4"/>
     <use xlink:href="#m9e60e6edbb" x="71.642498" y="29.346585" style="fill: #1f77b4; stroke: #1f77b4"/>
     <use xlink:href="#m9e60e6edbb" x="72.565458" y="28.49577" style="fill: #1f77b4; stroke: #1f77b4"/>
     <use xlink:href="#m9e60e6edbb" x="73.488417" y="27.654395" style="fill: #1f77b4; stroke: #1f77b4"/>
     <use xlink:href="#m9e60e6edbb" x="74.411377" y="28.122746" style="fill: #1f77b4; stroke: #1f77b4"/>
     <use xlink:href="#m9e60e6edbb" x="75.334337" y="26.388634" style="fill: #1f77b4; stroke: #1f77b4"/>
     <use xlink:href="#m9e60e6edbb" x="76.257297" y="28.797404" style="fill: #1f77b4; stroke: #1f77b4"/>
     <use xlink:href="#m9e60e6edbb" x="77.180257" y="28.903233" style="fill: #1f77b4; stroke: #1f77b4"/>
     <use xlink:href="#m9e60e6edbb" x="78.103216" y="30.299228" style="fill: #1f77b4; stroke: #1f77b4"/>
     <use xlink:href="#m9e60e6edbb" x="79.026176" y="27.288805" style="fill: #1f77b4; stroke: #1f77b4"/>
     <use xlink:href="#m9e60e6edbb" x="79.949136" y="29.182569" style="fill: #1f77b4; stroke: #1f77b4"/>
     <use xlink:href="#m9e60e6edbb" x="80.872096" y="27.793475" style="fill: #1f77b4; stroke: #1f77b4"/>
     <use xlink:href="#m9e60e6edbb" x="81.795056" y="27.828676" style="fill: #1f77b4; stroke: #1f77b4"/>
     <use xlink:href="#m9e60e6edbb" x="82.718015" y="26.750739" style="fill: #1f77b4; stroke: #1f77b4"/>
     <use xlink:href="#m9e60e6edbb" x="83.640975" y="29.845863" style="fill: #1f77b4; stroke: #1f77b4"/>
     <use xlink:href="#m9e60e6edbb" x="84.563935" y="28.254767" style="fill: #1f77b4; stroke: #1f77b4"/>
     <use xlink:href="#m9e60e6edbb" x="85.486895" y="26.187623" style="fill: #1f77b4; stroke: #1f77b4"/>
     <use xlink:href="#m9e60e6edbb" x="86.409855" y="29.43055" style="fill: #1f77b4; stroke: #1f77b4"/>
     <use xlink:href="#m9e60e6edbb" x="87.332814" y="28.362235" style="fill: #1f77b4; stroke: #1f77b4"/>
     <use xlink:href="#m9e60e6edbb" x="88.255774" y="26.72517" style="fill: #1f77b4; stroke: #1f77b4"/>
     <use xlink:href="#m9e60e6edbb" x="89.178734" y="30.669921" style="fill: #1f77b4; stroke: #1f77b4"/>
     <use xlink:href="#m9e60e6edbb" x="90.101694" y="28.52914" style="fill: #1f77b4; stroke: #1f77b4"/>
     <use xlink:href="#m9e60e6edbb" x="91.024654" y="28.672737" style="fill: #1f77b4; stroke: #1f77b4"/>
     <use xlink:href="#m9e60e6edbb" x="91.947613" y="30.074792" style="fill: #1f77b4; stroke: #1f77b4"/>
     <use xlink:href="#m9e60e6edbb" x="92.870573" y="30.164083" style="fill: #1f77b4; stroke: #1f77b4"/>
     <use xlink:href="#m9e60e6edbb" x="93.793533" y="29.793307" style="fill: #1f77b4; stroke: #1f77b4"/>
     <use xlink:href="#m9e60e6edbb" x="94.716493" y="28.257013" style="fill: #1f77b4; stroke: #1f77b4"/>
     <use xlink:href="#m9e60e6edbb" x="95.639453" y="29.44114" style="fill: #1f77b4; stroke: #1f77b4"/>
     <use xlink:href="#m9e60e6edbb" x="96.562412" y="29.312998" style="fill: #1f77b4; stroke: #1f77b4"/>
     <use xlink:href="#m9e60e6edbb" x="97.485372" y="29.430017" style="fill: #1f77b4; stroke: #1f77b4"/>
     <use xlink:href="#m9e60e6edbb" x="98.408332" y="25.596781" style="fill: #1f77b4; stroke: #1f77b4"/>
     <use xlink:href="#m9e60e6edbb" x="99.331292" y="31.455566" style="fill: #1f77b4; stroke: #1f77b4"/>
     <use xlink:href="#m9e60e6edbb" x="100.254252" y="27.618106" style="fill: #1f77b4; stroke: #1f77b4"/>
     <use xlink:href="#m9e60e6edbb" x="101.177211" y="29.67594" style="fill: #1f77b4; stroke: #1f77b4"/>
     <use xlink:href="#m9e60e6edbb" x="102.100171" y="27.635263" style="fill: #1f77b4; stroke: #1f77b4"/>
     <use xlink:href="#m9e60e6edbb" x="103.023131" y="28.288089" style="fill: #1f77b4; stroke: #1f77b4"/>
     <use xlink:href="#m9e60e6edbb" x="122.405287" y="29.246606" style="fill: #1f77b4; stroke: #1f77b4"/>
     <use xlink:href="#m9e60e6edbb" x="123.328247" y="26.749215" style="fill: #1f77b4; stroke: #1f77b4"/>
     <use xlink:href="#m9e60e6edbb" x="124.251207" y="26.977566" style="fill: #1f77b4; stroke: #1f77b4"/>
     <use xlink:href="#m9e60e6edbb" x="125.174166" y="26.236493" style="fill: #1f77b4; stroke: #1f77b4"/>
     <use xlink:href="#m9e60e6edbb" x="126.097126" y="28.142538" style="fill: #1f77b4; stroke: #1f77b4"/>
     <use xlink:href="#m9e60e6edbb" x="127.020086" y="28.587593" style="fill: #1f77b4; stroke: #1f77b4"/>
     <use xlink:href="#m9e60e6edbb" x="127.943046" y="29.978138" style="fill: #1f77b4; stroke: #1f77b4"/>
     <use xlink:href="#m9e60e6edbb" x="128.866006" y="26.998308" style="fill: #1f77b4; stroke: #1f77b4"/>
     <use xlink:href="#m9e60e6edbb" x="129.788965" y="29.142236" style="fill: #1f77b4; stroke: #1f77b4"/>
     <use xlink:href="#m9e60e6edbb" x="130.711925" y="27.832795" style="fill: #1f77b4; stroke: #1f77b4"/>
     <use xlink:href="#m9e60e6edbb" x="131.634885" y="30.307217" style="fill: #1f77b4; stroke: #1f77b4"/>
     <use xlink:href="#m9e60e6edbb" x="132.557845" y="28.164347" style="fill: #1f77b4; stroke: #1f77b4"/>
     <use xlink:href="#m9e60e6edbb" x="133.480805" y="27.910313" style="fill: #1f77b4; stroke: #1f77b4"/>
     <use xlink:href="#m9e60e6edbb" x="134.403764" y="29.834807" style="fill: #1f77b4; stroke: #1f77b4"/>
     <use xlink:href="#m9e60e6edbb" x="135.326724" y="30.070189" style="fill: #1f77b4; stroke: #1f77b4"/>
     <use xlink:href="#m9e60e6edbb" x="136.249684" y="30.97032" style="fill: #1f77b4; stroke: #1f77b4"/>
     <use xlink:href="#m9e60e6edbb" x="137.172644" y="27.97583" style="fill: #1f77b4; stroke: #1f77b4"/>
     <use xlink:href="#m9e60e6edbb" x="138.095604" y="30.057829" style="fill: #1f77b4; stroke: #1f77b4"/>
     <use xlink:href="#m9e60e6edbb" x="139.018563" y="28.738148" style="fill: #1f77b4; stroke: #1f77b4"/>
     <use xlink:href="#m9e60e6edbb" x="139.941523" y="30.104748" style="fill: #1f77b4; stroke: #1f77b4"/>
     <use xlink:href="#m9e60e6edbb" x="140.864483" y="30.245081" style="fill: #1f77b4; stroke: #1f77b4"/>
     <use xlink:href="#m9e60e6edbb" x="141.787443" y="31.09336" style="fill: #1f77b4; stroke: #1f77b4"/>
     <use xlink:href="#m9e60e6edbb" x="142.710403" y="27.781478" style="fill: #1f77b4; stroke: #1f77b4"/>
     <use xlink:href="#m9e60e6edbb" x="143.633362" y="26.977118" style="fill: #1f77b4; stroke: #1f77b4"/>
     <use xlink:href="#m9e60e6edbb" x="144.556322" y="26.597755" style="fill: #1f77b4; stroke: #1f77b4"/>
     <use xlink:href="#m9e60e6edbb" x="145.479282" y="28.467397" style="fill: #1f77b4; stroke: #1f77b4"/>
     <use xlink:href="#m9e60e6edbb" x="146.402242" y="29.270815" style="fill: #1f77b4; stroke: #1f77b4"/>
     <use xlink:href="#m9e60e6edbb" x="147.325202" y="34.421109" style="fill: #1f77b4; stroke: #1f77b4"/>
     <use xlink:href="#m9e60e6edbb" x="148.248161" y="40.410174" style="fill: #1f77b4; stroke: #1f77b4"/>
     <use xlink:href="#m9e60e6edbb" x="149.171121" y="48.429237" style="fill: #1f77b4; stroke: #1f77b4"/>
     <use xlink:href="#m9e60e6edbb" x="150.094081" y="59.40717" style="fill: #1f77b4; stroke: #1f77b4"/>
     <use xlink:href="#m9e60e6edbb" x="151.017041" y="71.610814" style="fill: #1f77b4; stroke: #1f77b4"/>
     <use xlink:href="#m9e60e6edbb" x="151.940001" y="81.634343" style="fill: #1f77b4; stroke: #1f77b4"/>
     <use xlink:href="#m9e60e6edbb" x="152.86296" y="94.061067" style="fill: #1f77b4; stroke: #1f77b4"/>
     <use xlink:href="#m9e60e6edbb" x="153.78592" y="108.081798" style="fill: #1f77b4; stroke: #1f77b4"/>
     <use xlink:href="#m9e60e6edbb" x="154.70888" y="120.3302" style="fill: #1f77b4; stroke: #1f77b4"/>
     <use xlink:href="#m9e60e6edbb" x="155.63184" y="132.217627" style="fill: #1f77b4; stroke: #1f77b4"/>
     <use xlink:href="#m9e60e6edbb" x="156.5548" y="138.782054" style="fill: #1f77b4; stroke: #1f77b4"/>
     <use xlink:href="#m9e60e6edbb" x="157.477759" y="141.706816" style="fill: #1f77b4; stroke: #1f77b4"/>
     <use xlink:href="#m9e60e6edbb" x="158.400719" y="147.430772" style="fill: #1f77b4; stroke: #1f77b4"/>
     <use xlink:href="#m9e60e6edbb" x="159.323679" y="148.618823" style="fill: #1f77b4; stroke: #1f77b4"/>
     <use xlink:href="#m9e60e6edbb" x="160.246639" y="149.777826" style="fill: #1f77b4; stroke: #1f77b4"/>
     <use xlink:href="#m9e60e6edbb" x="161.169599" y="153.330364" style="fill: #1f77b4; stroke: #1f77b4"/>
     <use xlink:href="#m9e60e6edbb" x="162.092558" y="152.733188" style="fill: #1f77b4; stroke: #1f77b4"/>
     <use xlink:href="#m9e60e6edbb" x="163.015518" y="155.002896" style="fill: #1f77b4; stroke: #1f77b4"/>
     <use xlink:href="#m9e60e6edbb" x="163.938478" y="158.433203" style="fill: #1f77b4; stroke: #1f77b4"/>
     <use xlink:href="#m9e60e6edbb" x="164.861438" y="159.488347" style="fill: #1f77b4; stroke: #1f77b4"/>
     <use xlink:href="#m9e60e6edbb" x="165.784398" y="159.312261" style="fill: #1f77b4; stroke: #1f77b4"/>
     <use xlink:href="#m9e60e6edbb" x="166.707357" y="162.313766" style="fill: #1f77b4; stroke: #1f77b4"/>
     <use xlink:href="#m9e60e6edbb" x="167.630317" y="161.603059" style="fill: #1f77b4; stroke: #1f77b4"/>
     <use xlink:href="#m9e60e6edbb" x="168.553277" y="163.920257" style="fill: #1f77b4; stroke: #1f77b4"/>
     <use xlink:href="#m9e60e6edbb" x="169.476237" y="164.101659" style="fill: #1f77b4; stroke: #1f77b4"/>
     <use xlink:href="#m9e60e6edbb" x="170.399197" y="164.890595" style="fill: #1f77b4; stroke: #1f77b4"/>
     <use xlink:href="#m9e60e6edbb" x="171.322156" y="166.32685" style="fill: #1f77b4; stroke: #1f77b4"/>
     <use xlink:href="#m9e60e6edbb" x="172.245116" y="165.797262" style="fill: #1f77b4; stroke: #1f77b4"/>
     <use xlink:href="#m9e60e6edbb" x="173.168076" y="163.792576" style="fill: #1f77b4; stroke: #1f77b4"/>
     <use xlink:href="#m9e60e6edbb" x="174.091036" y="169.478567" style="fill: #1f77b4; stroke: #1f77b4"/>
     <use xlink:href="#m9e60e6edbb" x="175.013996" y="168.388093" style="fill: #1f77b4; stroke: #1f77b4"/>
     <use xlink:href="#m9e60e6edbb" x="175.936955" y="167.236682" style="fill: #1f77b4; stroke: #1f77b4"/>
     <use xlink:href="#m9e60e6edbb" x="176.859915" y="169.278968" style="fill: #1f77b4; stroke: #1f77b4"/>
     <use xlink:href="#m9e60e6edbb" x="177.782875" y="168.313228" style="fill: #1f77b4; stroke: #1f77b4"/>
     <use xlink:href="#m9e60e6edbb" x="178.705835" y="168.299861" style="fill: #1f77b4; stroke: #1f77b4"/>
     <use xlink:href="#m9e60e6edbb" x="179.628795" y="169.74811" style="fill: #1f77b4; stroke: #1f77b4"/>
     <use xlink:href="#m9e60e6edbb" x="180.551754" y="169.807433" style="fill: #1f77b4; stroke: #1f77b4"/>
     <use xlink:href="#m9e60e6edbb" x="181.474714" y="171.453377" style="fill: #1f77b4; stroke: #1f77b4"/>
     <use xlink:href="#m9e60e6edbb" x="182.397674" y="169.183919" style="fill: #1f77b4; stroke: #1f77b4"/>
     <use xlink:href="#m9e60e6edbb" x="183.320634" y="169.753361" style="fill: #1f77b4; stroke: #1f77b4"/>
     <use xlink:href="#m9e60e6edbb" x="184.243594" y="171.311336" style="fill: #1f77b4; stroke: #1f77b4"/>
     <use xlink:href="#m9e60e6edbb" x="185.166553" y="172.601155" style="fill: #1f77b4; stroke: #1f77b4"/>
     <use xlink:href="#m9e60e6edbb" x="186.089513" y="175.165094" style="fill: #1f77b4; stroke: #1f77b4"/>
     <use xlink:href="#m9e60e6edbb" x="187.012473" y="173.656454" style="fill: #1f77b4; stroke: #1f77b4"/>
     <use xlink:href="#m9e60e6edbb" x="187.935433" y="171.602473" style="fill: #1f77b4; stroke: #1f77b4"/>
     <use xlink:href="#m9e60e6edbb" x="188.858393" y="175.034718" style="fill: #1f77b4; stroke: #1f77b4"/>
     <use xlink:href="#m9e60e6edbb" x="189.781352" y="171.262434" style="fill: #1f77b4; stroke: #1f77b4"/>
     <use xlink:href="#m9e60e6edbb" x="190.704312" y="175.162583" style="fill: #1f77b4; stroke: #1f77b4"/>
     <use xlink:href="#m9e60e6edbb" x="191.627272" y="173.836232" style="fill: #1f77b4; stroke: #1f77b4"/>
     <use xlink:href="#m9e60e6edbb" x="192.550232" y="172.330193" style="fill: #1f77b4; stroke: #1f77b4"/>
     <use xlink:href="#m9e60e6edbb" x="193.473192" y="170.464629" style="fill: #1f77b4; stroke: #1f77b4"/>
     <use xlink:href="#m9e60e6edbb" x="194.396151" y="172.751195" style="fill: #1f77b4; stroke: #1f77b4"/>
     <use xlink:href="#m9e60e6edbb" x="213.778307" y="172.12758" style="fill: #1f77b4; stroke: #1f77b4"/>
     <use xlink:href="#m9e60e6edbb" x="214.701267" y="171.511055" style="fill: #1f77b4; stroke: #1f77b4"/>
     <use xlink:href="#m9e60e6edbb" x="215.624227" y="174.376355" style="fill: #1f77b4; stroke: #1f77b4"/>
     <use xlink:href="#m9e60e6edbb" x="216.547187" y="173.269299" style="fill: #1f77b4; stroke: #1f77b4"/>
     <use xlink:href="#m9e60e6edbb" x="217.470146" y="174.80504" style="fill: #1f77b4; stroke: #1f77b4"/>
     <use xlink:href="#m9e60e6edbb" x="218.393106" y="171.215435" style="fill: #1f77b4; stroke: #1f77b4"/>
     <use xlink:href="#m9e60e6edbb" x="219.316066" y="173.251062" style="fill: #1f77b4; stroke: #1f77b4"/>
     <use xlink:href="#m9e60e6edbb" x="220.239026" y="170.197527" style="fill: #1f77b4; stroke: #1f77b4"/>
     <use xlink:href="#m9e60e6edbb" x="221.161986" y="172.397931" style="fill: #1f77b4; stroke: #1f77b4"/>
     <use xlink:href="#m9e60e6edbb" x="222.084946" y="171.116935" style="fill: #1f77b4; stroke: #1f77b4"/>
     <use xlink:href="#m9e60e6edbb" x="223.007905" y="170.005408" style="fill: #1f77b4; stroke: #1f77b4"/>
     <use xlink:href="#m9e60e6edbb" x="223.930865" y="171.952264" style="fill: #1f77b4; stroke: #1f77b4"/>
     <use xlink:href="#m9e60e6edbb" x="224.853825" y="172.599949" style="fill: #1f77b4; stroke: #1f77b4"/>
     <use xlink:href="#m9e60e6edbb" x="225.776785" y="170.927579" style="fill: #1f77b4; stroke: #1f77b4"/>
     <use xlink:href="#m9e60e6edbb" x="226.699745" y="169.751403" style="fill: #1f77b4; stroke: #1f77b4"/>
     <use xlink:href="#m9e60e6edbb" x="227.622704" y="170.866505" style="fill: #1f77b4; stroke: #1f77b4"/>
     <use xlink:href="#m9e60e6edbb" x="228.545664" y="170.799492" style="fill: #1f77b4; stroke: #1f77b4"/>
     <use xlink:href="#m9e60e6edbb" x="229.468624" y="167.667574" style="fill: #1f77b4; stroke: #1f77b4"/>
     <use xlink:href="#m9e60e6edbb" x="230.391584" y="168.31145" style="fill: #1f77b4; stroke: #1f77b4"/>
     <use xlink:href="#m9e60e6edbb" x="231.314544" y="166.549778" style="fill: #1f77b4; stroke: #1f77b4"/>
     <use xlink:href="#m9e60e6edbb" x="232.237503" y="168.338743" style="fill: #1f77b4; stroke: #1f77b4"/>
     <use xlink:href="#m9e60e6edbb" x="233.160463" y="167.331999" style="fill: #1f77b4; stroke: #1f77b4"/>
     <use xlink:href="#m9e60e6edbb" x="234.083423" y="165.500266" style="fill: #1f77b4; stroke: #1f77b4"/>
     <use xlink:href="#m9e60e6edbb" x="235.006383" y="167.651401" style="fill: #1f77b4; stroke: #1f77b4"/>
     <use xlink:href="#m9e60e6edbb" x="235.929343" y="163.944084" style="fill: #1f77b4; stroke: #1f77b4"/>
     <use xlink:href="#m9e60e6edbb" x="236.852302" y="165.920577" style="fill: #1f77b4; stroke: #1f77b4"/>
     <use xlink:href="#m9e60e6edbb" x="237.775262" y="164.282533" style="fill: #1f77b4; stroke: #1f77b4"/>
     <use xlink:href="#m9e60e6edbb" x="238.698222" y="162.370047" style="fill: #1f77b4; stroke: #1f77b4"/>
     <use xlink:href="#m9e60e6edbb" x="239.621182" y="162.345541" style="fill: #1f77b4; stroke: #1f77b4"/>
     <use xlink:href="#m9e60e6edbb" x="240.544142" y="162.16961" style="fill: #1f77b4; stroke: #1f77b4"/>
     <use xlink:href="#m9e60e6edbb" x="241.467101" y="159.367389" style="fill: #1f77b4; stroke: #1f77b4"/>
     <use xlink:href="#m9e60e6edbb" x="242.390061" y="156.859719" style="fill: #1f77b4; stroke: #1f77b4"/>
     <use xlink:href="#m9e60e6edbb" x="243.313021" y="158.141123" style="fill: #1f77b4; stroke: #1f77b4"/>
     <use xlink:href="#m9e60e6edbb" x="244.235981" y="154.593731" style="fill: #1f77b4; stroke: #1f77b4"/>
     <use xlink:href="#m9e60e6edbb" x="245.158941" y="155.521284" style="fill: #1f77b4; stroke: #1f77b4"/>
     <use xlink:href="#m9e60e6edbb" x="246.0819" y="152.397715" style="fill: #1f77b4; stroke: #1f77b4"/>
     <use xlink:href="#m9e60e6edbb" x="247.00486" y="152.841329" style="fill: #1f77b4; stroke: #1f77b4"/>
     <use xlink:href="#m9e60e6edbb" x="247.92782" y="150.415286" style="fill: #1f77b4; stroke: #1f77b4"/>
     <use xlink:href="#m9e60e6edbb" x="248.85078" y="148.169151" style="fill: #1f77b4; stroke: #1f77b4"/>
     <use xlink:href="#m9e60e6edbb" x="249.77374" y="144.775293" style="fill: #1f77b4; stroke: #1f77b4"/>
     <use xlink:href="#m9e60e6edbb" x="250.696699" y="144.75921" style="fill: #1f77b4; stroke: #1f77b4"/>
     <use xlink:href="#m9e60e6edbb" x="251.619659" y="140.406641" style="fill: #1f77b4; stroke: #1f77b4"/>
     <use xlink:href="#m9e60e6edbb" x="252.542619" y="130.978155" style="fill: #1f77b4; stroke: #1f77b4"/>
     <use xlink:href="#m9e60e6edbb" x="253.465579" y="119.304898" style="fill: #1f77b4; stroke: #1f77b4"/>
     <use xlink:href="#m9e60e6edbb" x="254.388539" y="107.111842" style="fill: #1f77b4; stroke: #1f77b4"/>
     <use xlink:href="#m9e60e6edbb" x="255.311498" y="98.224818" style="fill: #1f77b4; stroke: #1f77b4"/>
     <use xlink:href="#m9e60e6edbb" x="256.234458" y="82.988688" style="fill: #1f77b4; stroke: #1f77b4"/>
     <use xlink:href="#m9e60e6edbb" x="257.157418" y="70.543888" style="fill: #1f77b4; stroke: #1f77b4"/>
     <use xlink:href="#m9e60e6edbb" x="258.080378" y="60.381736" style="fill: #1f77b4; stroke: #1f77b4"/>
     <use xlink:href="#m9e60e6edbb" x="259.003338" y="48.884644" style="fill: #1f77b4; stroke: #1f77b4"/>
     <use xlink:href="#m9e60e6edbb" x="259.926297" y="40.621188" style="fill: #1f77b4; stroke: #1f77b4"/>
     <use xlink:href="#m9e60e6edbb" x="260.849257" y="32.247548" style="fill: #1f77b4; stroke: #1f77b4"/>
     <use xlink:href="#m9e60e6edbb" x="261.772217" y="31.476022" style="fill: #1f77b4; stroke: #1f77b4"/>
     <use xlink:href="#m9e60e6edbb" x="262.695177" y="29.869202" style="fill: #1f77b4; stroke: #1f77b4"/>
     <use xlink:href="#m9e60e6edbb" x="263.618137" y="25.969711" style="fill: #1f77b4; stroke: #1f77b4"/>
     <use xlink:href="#m9e60e6edbb" x="264.541096" y="29.601507" style="fill: #1f77b4; stroke: #1f77b4"/>
     <use xlink:href="#m9e60e6edbb" x="265.464056" y="28.842151" style="fill: #1f77b4; stroke: #1f77b4"/>
     <use xlink:href="#m9e60e6edbb" x="266.387016" y="28.577019" style="fill: #1f77b4; stroke: #1f77b4"/>
     <use xlink:href="#m9e60e6edbb" x="267.309976" y="29.030512" style="fill: #1f77b4; stroke: #1f77b4"/>
     <use xlink:href="#m9e60e6edbb" x="268.232936" y="30.989431" style="fill: #1f77b4; stroke: #1f77b4"/>
     <use xlink:href="#m9e60e6edbb" x="269.155895" y="28.991979" style="fill: #1f77b4; stroke: #1f77b4"/>
     <use xlink:href="#m9e60e6edbb" x="270.078855" y="29.953976" style="fill: #1f77b4; stroke: #1f77b4"/>
     <use xlink:href="#m9e60e6edbb" x="271.001815" y="27.186033" style="fill: #1f77b4; stroke: #1f77b4"/>
     <use xlink:href="#m9e60e6edbb" x="271.924775" y="27.148888" style="fill: #1f77b4; stroke: #1f77b4"/>
     <use xlink:href="#m9e60e6edbb" x="272.847735" y="29.179714" style="fill: #1f77b4; stroke: #1f77b4"/>
     <use xlink:href="#m9e60e6edbb" x="273.770694" y="28.702214" style="fill: #1f77b4; stroke: #1f77b4"/>
     <use xlink:href="#m9e60e6edbb" x="274.693654" y="27.651447" style="fill: #1f77b4; stroke: #1f77b4"/>
     <use xlink:href="#m9e60e6edbb" x="275.616614" y="28.452521" style="fill: #1f77b4; stroke: #1f77b4"/>
     <use xlink:href="#m9e60e6edbb" x="276.539574" y="29.13414" style="fill: #1f77b4; stroke: #1f77b4"/>
     <use xlink:href="#m9e60e6edbb" x="277.462534" y="28.24581" style="fill: #1f77b4; stroke: #1f77b4"/>
     <use xlink:href="#m9e60e6edbb" x="278.385493" y="27.155101" style="fill: #1f77b4; stroke: #1f77b4"/>
     <use xlink:href="#m9e60e6edbb" x="279.308453" y="28.692697" style="fill: #1f77b4; stroke: #1f77b4"/>
     <use xlink:href="#m9e60e6edbb" x="280.231413" y="27.873047" style="fill: #1f77b4; stroke: #1f77b4"/>
     <use xlink:href="#m9e60e6edbb" x="281.154373" y="28.880329" style="fill: #1f77b4; stroke: #1f77b4"/>
     <use xlink:href="#m9e60e6edbb" x="282.077333" y="27.265733" style="fill: #1f77b4; stroke: #1f77b4"/>
     <use xlink:href="#m9e60e6edbb" x="283.000292" y="28.793306" style="fill: #1f77b4; stroke: #1f77b4"/>
     <use xlink:href="#m9e60e6edbb" x="283.923252" y="29.229023" style="fill: #1f77b4; stroke: #1f77b4"/>
     <use xlink:href="#m9e60e6edbb" x="284.846212" y="29.628099" style="fill: #1f77b4; stroke: #1f77b4"/>
     <use xlink:href="#m9e60e6edbb" x="285.769172" y="28.255828" style="fill: #1f77b4; stroke: #1f77b4"/>
     <use xlink:href="#m9e60e6edbb" x="305.151328" y="29.940642" style="fill: #1f77b4; stroke: #1f77b4"/>
     <use xlink:href="#m9e60e6edbb" x="306.074287" y="27.739077" style="fill: #1f77b4; stroke: #1f77b4"/>
     <use xlink:href="#m9e60e6edbb" x="306.997247" y="27.62758" style="fill: #1f77b4; stroke: #1f77b4"/>
     <use xlink:href="#m9e60e6edbb" x="307.920207" y="27.059297" style="fill: #1f77b4; stroke: #1f77b4"/>
     <use xlink:href="#m9e60e6edbb" x="308.843167" y="28.919289" style="fill: #1f77b4; stroke: #1f77b4"/>
     <use xlink:href="#m9e60e6edbb" x="309.766127" y="27.542664" style="fill: #1f77b4; stroke: #1f77b4"/>
     <use xlink:href="#m9e60e6edbb" x="310.689086" y="26.142203" style="fill: #1f77b4; stroke: #1f77b4"/>
     <use xlink:href="#m9e60e6edbb" x="311.612046" y="28.787608" style="fill: #1f77b4; stroke: #1f77b4"/>
     <use xlink:href="#m9e60e6edbb" x="312.535006" y="26.218186" style="fill: #1f77b4; stroke: #1f77b4"/>
     <use xlink:href="#m9e60e6edbb" x="313.457966" y="29.404198" style="fill: #1f77b4; stroke: #1f77b4"/>
     <use xlink:href="#m9e60e6edbb" x="314.380926" y="27.863196" style="fill: #1f77b4; stroke: #1f77b4"/>
     <use xlink:href="#m9e60e6edbb" x="315.303885" y="27.82552" style="fill: #1f77b4; stroke: #1f77b4"/>
     <use xlink:href="#m9e60e6edbb" x="316.226845" y="29.406145" style="fill: #1f77b4; stroke: #1f77b4"/>
     <use xlink:href="#m9e60e6edbb" x="317.149805" y="27.863091" style="fill: #1f77b4; stroke: #1f77b4"/>
     <use xlink:href="#m9e60e6edbb" x="318.072765" y="27.87781" style="fill: #1f77b4; stroke: #1f77b4"/>
     <use xlink:href="#m9e60e6edbb" x="318.995725" y="28.87552" style="fill: #1f77b4; stroke: #1f77b4"/>
     <use xlink:href="#m9e60e6edbb" x="319.918684" y="29.572269" style="fill: #1f77b4; stroke: #1f77b4"/>
     <use xlink:href="#m9e60e6edbb" x="320.841644" y="29.169579" style="fill: #1f77b4; stroke: #1f77b4"/>
     <use xlink:href="#m9e60e6edbb" x="321.764604" y="27.650363" style="fill: #1f77b4; stroke: #1f77b4"/>
     <use xlink:href="#m9e60e6edbb" x="322.687564" y="29.682154" style="fill: #1f77b4; stroke: #1f77b4"/>
     <use xlink:href="#m9e60e6edbb" x="323.610524" y="28.740666" style="fill: #1f77b4; stroke: #1f77b4"/>
     <use xlink:href="#m9e60e6edbb" x="324.533483" y="25.900878" style="fill: #1f77b4; stroke: #1f77b4"/>
     <use xlink:href="#m9e60e6edbb" x="325.456443" y="28.653139" style="fill: #1f77b4; stroke: #1f77b4"/>
     <use xlink:href="#m9e60e6edbb" x="326.379403" y="27.999428" style="fill: #1f77b4; stroke: #1f77b4"/>
     <use xlink:href="#m9e60e6edbb" x="327.302363" y="29.014746" style="fill: #1f77b4; stroke: #1f77b4"/>
     <use xlink:href="#m9e60e6edbb" x="328.225323" y="27.859707" style="fill: #1f77b4; stroke: #1f77b4"/>
     <use xlink:href="#m9e60e6edbb" x="329.148282" y="30.819426" style="fill: #1f77b4; stroke: #1f77b4"/>
     <use xlink:href="#m9e60e6edbb" x="330.071242" y="28.235068" style="fill: #1f77b4; stroke: #1f77b4"/>
     <use xlink:href="#m9e60e6edbb" x="330.994202" y="30.677051" style="fill: #1f77b4; stroke: #1f77b4"/>
     <use xlink:href="#m9e60e6edbb" x="331.917162" y="28.226844" style="fill: #1f77b4; stroke: #1f77b4"/>
     <use xlink:href="#m9e60e6edbb" x="332.840122" y="29.967432" style="fill: #1f77b4; stroke: #1f77b4"/>
     <use xlink:href="#m9e60e6edbb" x="333.763082" y="27.627674" style="fill: #1f77b4; stroke: #1f77b4"/>
     <use xlink:href="#m9e60e6edbb" x="334.686041" y="27.127501" style="fill: #1f77b4; stroke: #1f77b4"/>
     <use xlink:href="#m9e60e6edbb" x="335.609001" y="29.548987" style="fill: #1f77b4; stroke: #1f77b4"/>
     <use xlink:href="#m9e60e6edbb" x="336.531961" y="27.100174" style="fill: #1f77b4; stroke: #1f77b4"/>
     <use xlink:href="#m9e60e6edbb" x="337.454921" y="28.512866" style="fill: #1f77b4; stroke: #1f77b4"/>
     <use xlink:href="#m9e60e6edbb" x="338.377881" y="28.816565" style="fill: #1f77b4; stroke: #1f77b4"/>
     <use xlink:href="#m9e60e6edbb" x="339.30084" y="27.012534" style="fill: #1f77b4; stroke: #1f77b4"/>
     <use xlink:href="#m9e60e6edbb" x="340.2238" y="29.193522" style="fill: #1f77b4; stroke: #1f77b4"/>
     <use xlink:href="#m9e60e6edbb" x="341.14676" y="28.181373" style="fill: #1f77b4; stroke: #1f77b4"/>
     <use xlink:href="#m9e60e6edbb" x="342.06972" y="28.050992" style="fill: #1f77b4; stroke: #1f77b4"/>
    </g>
   </g>
   <g id="patch_3">
    <path d="M 52.30649 182.64351 
L 52.30649 18.118365 
" style="fill: none; stroke: #000000; stroke-width: 0.8; stroke-linejoin: miter; stroke-linecap: square"/>
   </g>
   <g id="patch_4">
    <path d="M 355.867969 182.64351 
L 355.867969 18.118365 
" style="fill: none; stroke: #000000; stroke-width: 0.8; stroke-linejoin: miter; stroke-linecap: square"/>
   </g>
   <g id="patch_5">
    <path d="M 52.30649 182.64351 
L 355.867969 182.64351 
" style="fill: none; stroke: #000000; stroke-width: 0.8; stroke-linejoin: miter; stroke-linecap: square"/>
   </g>
   <g id="patch_6">
    <path d="M 52.30649 18.118365 
L 355.867969 18.118365 
" style="fill: none; stroke: #000000; stroke-width: 0.8; stroke-linejoin: miter; stroke-linecap: square"/>
   </g>
   <g id="text_14">
    <!-- Simple transit -->
    <g transform="translate(162.249417 12.118365) scale(0.12 -0.12)">
     <defs>
      <path id="DejaVuSans-53" d="M 3425 4513 
L 3425 3897 
Q 3066 4069 2747 4153 
Q 2428 4238 2131 4238 
Q 1616 4238 1336 4038 
Q 1056 3838 1056 3469 
Q 1056 3159 1242 3001 
Q 1428 2844 1947 2747 
L 2328 2669 
Q 3034 2534 3370 2195 
Q 3706 1856 3706 1288 
Q 3706 609 3251 259 
Q 2797 -91 1919 -91 
Q 1588 -91 1214 -16 
Q 841 59 441 206 
L 441 856 
Q 825 641 1194 531 
Q 1563 422 1919 422 
Q 2459 422 2753 634 
Q 3047 847 3047 1241 
Q 3047 1584 2836 1778 
Q 2625 1972 2144 2069 
L 1759 2144 
Q 1053 2284 737 2584 
Q 422 2884 422 3419 
Q 422 4038 858 4394 
Q 1294 4750 2059 4750 
Q 2388 4750 2728 4690 
Q 3069 4631 3425 4513 
z
" transform="scale(0.015625)"/>
      <path id="DejaVuSans-70" d="M 1159 525 
L 1159 -1331 
L 581 -1331 
L 581 3500 
L 1159 3500 
L 1159 2969 
Q 1341 3281 1617 3432 
Q 1894 3584 2278 3584 
Q 2916 3584 3314 3078 
Q 3713 2572 3713 1747 
Q 3713 922 3314 415 
Q 2916 -91 2278 -91 
Q 1894 -91 1617 61 
Q 1341 213 1159 525 
z
M 3116 1747 
Q 3116 2381 2855 2742 
Q 2594 3103 2138 3103 
Q 1681 3103 1420 2742 
Q 1159 2381 1159 1747 
Q 1159 1113 1420 752 
Q 1681 391 2138 391 
Q 2594 391 2855 752 
Q 3116 1113 3116 1747 
z
" transform="scale(0.015625)"/>
      <path id="DejaVuSans-74" d="M 1172 4494 
L 1172 3500 
L 2356 3500 
L 2356 3053 
L 1172 3053 
L 1172 1153 
Q 1172 725 1289 603 
Q 1406 481 1766 481 
L 2356 481 
L 2356 0 
L 1766 0 
Q 1100 0 847 248 
Q 594 497 594 1153 
L 594 3053 
L 172 3053 
L 172 3500 
L 594 3500 
L 594 4494 
L 1172 4494 
z
" transform="scale(0.015625)"/>
      <path id="DejaVuSans-72" d="M 2631 2963 
Q 2534 3019 2420 3045 
Q 2306 3072 2169 3072 
Q 1681 3072 1420 2755 
Q 1159 2438 1159 1844 
L 1159 0 
L 581 0 
L 581 3500 
L 1159 3500 
L 1159 2956 
Q 1341 3275 1631 3429 
Q 1922 3584 2338 3584 
Q 2397 3584 2469 3576 
Q 2541 3569 2628 3553 
L 2631 2963 
z
" transform="scale(0.015625)"/>
      <path id="DejaVuSans-61" d="M 2194 1759 
Q 1497 1759 1228 1600 
Q 959 1441 959 1056 
Q 959 750 1161 570 
Q 1363 391 1709 391 
Q 2188 391 2477 730 
Q 2766 1069 2766 1631 
L 2766 1759 
L 2194 1759 
z
M 3341 1997 
L 3341 0 
L 2766 0 
L 2766 531 
Q 2569 213 2275 61 
Q 1981 -91 1556 -91 
Q 1019 -91 701 211 
Q 384 513 384 1019 
Q 384 1609 779 1909 
Q 1175 2209 1959 2209 
L 2766 2209 
L 2766 2266 
Q 2766 2663 2505 2880 
Q 2244 3097 1772 3097 
Q 1472 3097 1187 3025 
Q 903 2953 641 2809 
L 641 3341 
Q 956 3463 1253 3523 
Q 1550 3584 1831 3584 
Q 2591 3584 2966 3190 
Q 3341 2797 3341 1997 
z
" transform="scale(0.015625)"/>
      <path id="DejaVuSans-6e" d="M 3513 2113 
L 3513 0 
L 2938 0 
L 2938 2094 
Q 2938 2591 2744 2837 
Q 2550 3084 2163 3084 
Q 1697 3084 1428 2787 
Q 1159 2491 1159 1978 
L 1159 0 
L 581 0 
L 581 3500 
L 1159 3500 
L 1159 2956 
Q 1366 3272 1645 3428 
Q 1925 3584 2291 3584 
Q 2894 3584 3203 3211 
Q 3513 2838 3513 2113 
z
" transform="scale(0.015625)"/>
      <path id="DejaVuSans-73" d="M 2834 3397 
L 2834 2853 
Q 2591 2978 2328 3040 
Q 2066 3103 1784 3103 
Q 1356 3103 1142 2972 
Q 928 2841 928 2578 
Q 928 2378 1081 2264 
Q 1234 2150 1697 2047 
L 1894 2003 
Q 2506 1872 2764 1633 
Q 3022 1394 3022 966 
Q 3022 478 2636 193 
Q 2250 -91 1575 -91 
Q 1294 -91 989 -36 
Q 684 19 347 128 
L 347 722 
Q 666 556 975 473 
Q 1284 391 1588 391 
Q 1994 391 2212 530 
Q 2431 669 2431 922 
Q 2431 1156 2273 1281 
Q 2116 1406 1581 1522 
L 1381 1569 
Q 847 1681 609 1914 
Q 372 2147 372 2553 
Q 372 3047 722 3315 
Q 1072 3584 1716 3584 
Q 2034 3584 2315 3537 
Q 2597 3491 2834 3397 
z
" transform="scale(0.015625)"/>
     </defs>
     <use xlink:href="#DejaVuSans-53"/>
     <use xlink:href="#DejaVuSans-69" x="63.476562"/>
     <use xlink:href="#DejaVuSans-6d" x="91.259766"/>
     <use xlink:href="#DejaVuSans-70" x="188.671875"/>
     <use xlink:href="#DejaVuSans-6c" x="252.148438"/>
     <use xlink:href="#DejaVuSans-65" x="279.931641"/>
     <use xlink:href="#DejaVuSans-20" x="341.455078"/>
     <use xlink:href="#DejaVuSans-74" x="373.242188"/>
     <use xlink:href="#DejaVuSans-72" x="412.451172"/>
     <use xlink:href="#DejaVuSans-61" x="453.564453"/>
     <use xlink:href="#DejaVuSans-6e" x="514.84375"/>
     <use xlink:href="#DejaVuSans-73" x="578.222656"/>
     <use xlink:href="#DejaVuSans-69" x="630.322266"/>
     <use xlink:href="#DejaVuSans-74" x="658.105469"/>
    </g>
   </g>
  </g>
  <g id="axes_2">
   <g id="patch_7">
    <path d="M 413.438281 182.64351 
L 716.99976 182.64351 
L 716.99976 18.118365 
L 413.438281 18.118365 
z
" style="fill: #ffffff"/>
   </g>
   <g id="matplotlib.axis_3">
    <g id="xtick_6">
     <g id="line2d_13">
      <g>
       <use xlink:href="#m451ed1235d" x="447.125987" y="182.64351" style="stroke: #000000; stroke-width: 0.8"/>
      </g>
     </g>
     <g id="text_15">
      <!-- −0.6 -->
      <g transform="translate(434.984581 197.241948) scale(0.1 -0.1)">
       <use xlink:href="#DejaVuSans-2212"/>
       <use xlink:href="#DejaVuSans-30" x="83.789062"/>
       <use xlink:href="#DejaVuSans-2e" x="147.412109"/>
       <use xlink:href="#DejaVuSans-36" x="179.199219"/>
      </g>
     </g>
    </g>
    <g id="xtick_7">
     <g id="line2d_14">
      <g>
       <use xlink:href="#m451ed1235d" x="486.904901" y="182.64351" style="stroke: #000000; stroke-width: 0.8"/>
      </g>
     </g>
     <g id="text_16">
      <!-- −0.4 -->
      <g transform="translate(474.763495 197.241948) scale(0.1 -0.1)">
       <use xlink:href="#DejaVuSans-2212"/>
       <use xlink:href="#DejaVuSans-30" x="83.789062"/>
       <use xlink:href="#DejaVuSans-2e" x="147.412109"/>
       <use xlink:href="#DejaVuSans-34" x="179.199219"/>
      </g>
     </g>
    </g>
    <g id="xtick_8">
     <g id="line2d_15">
      <g>
       <use xlink:href="#m451ed1235d" x="526.683815" y="182.64351" style="stroke: #000000; stroke-width: 0.8"/>
      </g>
     </g>
     <g id="text_17">
      <!-- −0.2 -->
      <g transform="translate(514.542409 197.241948) scale(0.1 -0.1)">
       <use xlink:href="#DejaVuSans-2212"/>
       <use xlink:href="#DejaVuSans-30" x="83.789062"/>
       <use xlink:href="#DejaVuSans-2e" x="147.412109"/>
       <use xlink:href="#DejaVuSans-32" x="179.199219"/>
      </g>
     </g>
    </g>
    <g id="xtick_9">
     <g id="line2d_16">
      <g>
       <use xlink:href="#m451ed1235d" x="566.462729" y="182.64351" style="stroke: #000000; stroke-width: 0.8"/>
      </g>
     </g>
     <g id="text_18">
      <!-- 0.0 -->
      <g transform="translate(558.511166 197.241948) scale(0.1 -0.1)">
       <use xlink:href="#DejaVuSans-30"/>
       <use xlink:href="#DejaVuSans-2e" x="63.623047"/>
       <use xlink:href="#DejaVuSans-30" x="95.410156"/>
      </g>
     </g>
    </g>
    <g id="xtick_10">
     <g id="line2d_17">
      <g>
       <use xlink:href="#m451ed1235d" x="606.241642" y="182.64351" style="stroke: #000000; stroke-width: 0.8"/>
      </g>
     </g>
     <g id="text_19">
      <!-- 0.2 -->
      <g transform="translate(598.29008 197.241948) scale(0.1 -0.1)">
       <use xlink:href="#DejaVuSans-30"/>
       <use xlink:href="#DejaVuSans-2e" x="63.623047"/>
       <use xlink:href="#DejaVuSans-32" x="95.410156"/>
      </g>
     </g>
    </g>
    <g id="xtick_11">
     <g id="line2d_18">
      <g>
       <use xlink:href="#m451ed1235d" x="646.020556" y="182.64351" style="stroke: #000000; stroke-width: 0.8"/>
      </g>
     </g>
     <g id="text_20">
      <!-- 0.4 -->
      <g transform="translate(638.068994 197.241948) scale(0.1 -0.1)">
       <use xlink:href="#DejaVuSans-30"/>
       <use xlink:href="#DejaVuSans-2e" x="63.623047"/>
       <use xlink:href="#DejaVuSans-34" x="95.410156"/>
      </g>
     </g>
    </g>
    <g id="xtick_12">
     <g id="line2d_19">
      <g>
       <use xlink:href="#m451ed1235d" x="685.79947" y="182.64351" style="stroke: #000000; stroke-width: 0.8"/>
      </g>
     </g>
     <g id="text_21">
      <!-- 0.6 -->
      <g transform="translate(677.847908 197.241948) scale(0.1 -0.1)">
       <use xlink:href="#DejaVuSans-30"/>
       <use xlink:href="#DejaVuSans-2e" x="63.623047"/>
       <use xlink:href="#DejaVuSans-36" x="95.410156"/>
      </g>
     </g>
    </g>
    <g id="text_22">
     <!-- Time [d] -->
     <g transform="translate(544.320583 210.920073) scale(0.1 -0.1)">
      <use xlink:href="#DejaVuSans-54"/>
      <use xlink:href="#DejaVuSans-69" x="57.958984"/>
      <use xlink:href="#DejaVuSans-6d" x="85.742188"/>
      <use xlink:href="#DejaVuSans-65" x="183.154297"/>
      <use xlink:href="#DejaVuSans-20" x="244.677734"/>
      <use xlink:href="#DejaVuSans-5b" x="276.464844"/>
      <use xlink:href="#DejaVuSans-64" x="315.478516"/>
      <use xlink:href="#DejaVuSans-5d" x="378.955078"/>
     </g>
    </g>
   </g>
   <g id="matplotlib.axis_4">
    <g id="ytick_7">
     <g id="line2d_20">
      <g>
       <use xlink:href="#mdb289e4d5d" x="413.438281" y="166.190996" style="stroke: #000000; stroke-width: 0.8"/>
      </g>
     </g>
     <g id="text_23">
      <!-- −0.0004 -->
      <g transform="translate(363.067969 169.990214) scale(0.1 -0.1)">
       <use xlink:href="#DejaVuSans-2212"/>
       <use xlink:href="#DejaVuSans-30" x="83.789062"/>
       <use xlink:href="#DejaVuSans-2e" x="147.412109"/>
       <use xlink:href="#DejaVuSans-30" x="179.199219"/>
       <use xlink:href="#DejaVuSans-30" x="242.822266"/>
       <use xlink:href="#DejaVuSans-30" x="306.445312"/>
       <use xlink:href="#DejaVuSans-34" x="370.068359"/>
      </g>
     </g>
    </g>
    <g id="ytick_8">
     <g id="line2d_21">
      <g>
       <use xlink:href="#mdb289e4d5d" x="413.438281" y="133.285966" style="stroke: #000000; stroke-width: 0.8"/>
      </g>
     </g>
     <g id="text_24">
      <!-- −0.0002 -->
      <g transform="translate(363.067969 137.085185) scale(0.1 -0.1)">
       <use xlink:href="#DejaVuSans-2212"/>
       <use xlink:href="#DejaVuSans-30" x="83.789062"/>
       <use xlink:href="#DejaVuSans-2e" x="147.412109"/>
       <use xlink:href="#DejaVuSans-30" x="179.199219"/>
       <use xlink:href="#DejaVuSans-30" x="242.822266"/>
       <use xlink:href="#DejaVuSans-30" x="306.445312"/>
       <use xlink:href="#DejaVuSans-32" x="370.068359"/>
      </g>
     </g>
    </g>
    <g id="ytick_9">
     <g id="line2d_22">
      <g>
       <use xlink:href="#mdb289e4d5d" x="413.438281" y="100.380938" style="stroke: #000000; stroke-width: 0.8"/>
      </g>
     </g>
     <g id="text_25">
      <!-- 0.0000 -->
      <g transform="translate(371.447656 104.180156) scale(0.1 -0.1)">
       <use xlink:href="#DejaVuSans-30"/>
       <use xlink:href="#DejaVuSans-2e" x="63.623047"/>
       <use xlink:href="#DejaVuSans-30" x="95.410156"/>
       <use xlink:href="#DejaVuSans-30" x="159.033203"/>
       <use xlink:href="#DejaVuSans-30" x="222.65625"/>
       <use xlink:href="#DejaVuSans-30" x="286.279297"/>
      </g>
     </g>
    </g>
    <g id="ytick_10">
     <g id="line2d_23">
      <g>
       <use xlink:href="#mdb289e4d5d" x="413.438281" y="67.475909" style="stroke: #000000; stroke-width: 0.8"/>
      </g>
     </g>
     <g id="text_26">
      <!-- 0.0002 -->
      <g transform="translate(371.447656 71.275127) scale(0.1 -0.1)">
       <use xlink:href="#DejaVuSans-30"/>
       <use xlink:href="#DejaVuSans-2e" x="63.623047"/>
       <use xlink:href="#DejaVuSans-30" x="95.410156"/>
       <use xlink:href="#DejaVuSans-30" x="159.033203"/>
       <use xlink:href="#DejaVuSans-30" x="222.65625"/>
       <use xlink:href="#DejaVuSans-32" x="286.279297"/>
      </g>
     </g>
    </g>
    <g id="ytick_11">
     <g id="line2d_24">
      <g>
       <use xlink:href="#mdb289e4d5d" x="413.438281" y="34.57088" style="stroke: #000000; stroke-width: 0.8"/>
      </g>
     </g>
     <g id="text_27">
      <!-- 0.0004 -->
      <g transform="translate(371.447656 38.370098) scale(0.1 -0.1)">
       <use xlink:href="#DejaVuSans-30"/>
       <use xlink:href="#DejaVuSans-2e" x="63.623047"/>
       <use xlink:href="#DejaVuSans-30" x="95.410156"/>
       <use xlink:href="#DejaVuSans-30" x="159.033203"/>
       <use xlink:href="#DejaVuSans-30" x="222.65625"/>
       <use xlink:href="#DejaVuSans-34" x="286.279297"/>
      </g>
     </g>
    </g>
    <g id="text_28">
     <!-- +1 -->
     <g transform="translate(413.438281 15.118365) scale(0.1 -0.1)">
      <defs>
       <path id="DejaVuSans-2b" d="M 2944 4013 
L 2944 2272 
L 4684 2272 
L 4684 1741 
L 2944 1741 
L 2944 0 
L 2419 0 
L 2419 1741 
L 678 1741 
L 678 2272 
L 2419 2272 
L 2419 4013 
L 2944 4013 
z
" transform="scale(0.015625)"/>
      </defs>
      <use xlink:href="#DejaVuSans-2b"/>
      <use xlink:href="#DejaVuSans-31" x="83.789062"/>
     </g>
    </g>
   </g>
   <g id="line2d_25">
    <path d="M 434.888387 217 
L 435.251537 102.036122 
L 435.389727 99.23794 
L 435.666107 98.728625 
L 435.804296 99.147249 
L 435.942486 98.469983 
L 436.080676 101.769367 
L 436.218866 98.338429 
L 436.357055 98.049954 
L 436.495245 99.488137 
L 436.633435 96.807117 
L 436.771625 100.591802 
L 436.909815 98.775518 
L 437.186194 103.386572 
L 437.324384 97.993159 
L 437.738953 101.353593 
L 437.877143 101.276786 
L 438.015333 98.475473 
L 438.291712 99.603036 
L 438.429902 99.17306 
L 438.568092 98.369576 
L 438.706282 100.449173 
L 438.844471 100.041088 
L 438.982661 100.083765 
L 439.120851 96.974875 
L 439.53542 100.744461 
L 439.67361 99.414428 
L 439.8118 96.901314 
L 439.94999 99.258385 
L 440.088179 97.191101 
L 440.226369 99.618672 
L 440.364559 98.383653 
L 440.502749 100.762102 
L 440.640938 100.552971 
L 440.779128 95.352861 
L 440.917318 99.342088 
L 441.055508 98.687174 
L 441.193698 96.125695 
L 441.331887 100.260531 
L 441.470077 98.407956 
L 441.608267 99.736178 
L 441.884646 96.236899 
L 442.022836 97.923019 
L 442.161026 96.90219 
L 442.299216 100.589681 
L 442.437406 94.342266 
L 442.575595 97.276872 
L 442.713785 97.780566 
L 442.851975 99.325156 
L 442.990165 96.800387 
L 443.128354 98.814718 
L 443.266544 96.440176 
L 448.932325 94.566015 
L 449.070515 93.60412 
L 449.208705 90.386656 
L 449.346894 92.839866 
L 449.485084 97.452857 
L 449.623274 93.925198 
L 449.761464 94.987284 
L 449.899653 94.600006 
L 450.037843 90.846847 
L 450.176033 95.736321 
L 450.314223 93.979665 
L 450.452412 94.597473 
L 450.590602 91.405992 
L 450.866982 91.495131 
L 451.005172 89.836666 
L 451.281551 94.057589 
L 451.419741 93.924481 
L 451.69612 89.960768 
L 451.83431 91.17927 
L 451.9725 90.884697 
L 452.11069 93.076525 
L 452.24888 90.694396 
L 452.387069 91.317566 
L 452.525259 90.814344 
L 452.663449 90.980025 
L 452.801639 90.957863 
L 452.939828 88.863717 
L 453.078018 91.019243 
L 453.354398 89.501474 
L 453.492588 91.868735 
L 453.768967 88.20978 
L 453.907157 89.611574 
L 454.045347 89.237141 
L 454.183536 86.730006 
L 454.321726 92.1199 
L 454.459916 91.147903 
L 454.598106 92.631153 
L 454.736296 88.129497 
L 454.874485 88.081087 
L 455.150865 89.784306 
L 455.289055 89.490456 
L 455.427244 86.890689 
L 455.565434 90.645273 
L 455.703624 85.330391 
L 455.980003 89.861633 
L 456.118193 86.677141 
L 456.256383 89.850592 
L 456.394573 88.408605 
L 456.532763 89.347976 
L 456.670952 88.338223 
L 456.809142 89.531613 
L 456.947332 86.474483 
L 462.613113 80.485071 
L 462.751302 83.506216 
L 462.889492 80.909994 
L 463.027682 80.916425 
L 463.165872 83.05258 
L 463.580441 78.992947 
L 463.856821 84.533339 
L 464.1332 80.769548 
L 464.27139 80.108986 
L 464.40958 81.363889 
L 464.54777 81.414214 
L 464.685959 78.756585 
L 464.824149 83.344208 
L 464.962339 81.321128 
L 465.100529 83.489668 
L 465.238718 83.313884 
L 465.376908 78.271082 
L 465.515098 80.37264 
L 465.653288 78.481808 
L 465.791478 79.934306 
L 465.929667 79.785199 
L 466.067857 80.121729 
L 466.206047 79.121041 
L 466.344237 80.504697 
L 466.482426 80.116363 
L 466.620616 77.451736 
L 467.035185 79.118318 
L 467.311565 75.956418 
L 467.449755 78.029335 
L 467.587945 75.529331 
L 467.726134 78.918378 
L 468.140704 79.598321 
L 468.278893 76.04766 
L 468.555273 77.645732 
L 468.693463 77.566687 
L 468.831653 76.307402 
L 468.969842 78.199442 
L 469.108032 77.621516 
L 469.246222 77.922383 
L 469.522601 76.867914 
L 469.660791 74.175952 
L 469.798981 77.750434 
L 469.937171 74.29936 
L 470.35174 77.995314 
L 470.48993 74.899746 
L 470.62812 78.082943 
L 476.2939 70.175362 
L 476.43209 70.22524 
L 476.57028 72.170884 
L 476.84666 69.355408 
L 476.984849 69.239069 
L 477.123039 72.737644 
L 477.399419 68.319124 
L 477.675798 68.60854 
L 477.813988 67.130356 
L 477.952178 67.474094 
L 478.228557 69.101622 
L 478.366747 68.751989 
L 478.504937 66.077715 
L 478.643127 67.424579 
L 478.781316 66.851076 
L 478.919506 65.627971 
L 479.057696 69.598227 
L 479.195886 66.429575 
L 479.334075 68.137417 
L 479.472265 65.628048 
L 479.748645 66.449868 
L 479.886835 65.592516 
L 480.025024 69.059745 
L 480.163214 67.709867 
L 480.301404 69.455749 
L 480.577783 65.557317 
L 480.854163 69.690513 
L 480.992353 65.967878 
L 481.130543 67.569677 
L 481.268732 67.474773 
L 481.406922 68.657697 
L 481.683302 63.938538 
L 481.821491 64.365986 
L 481.959681 65.540675 
L 482.097871 64.893743 
L 482.374251 67.798874 
L 482.65063 62.950612 
L 482.78882 63.839203 
L 482.92701 63.80302 
L 483.065199 64.101407 
L 483.203389 63.523287 
L 483.341579 63.876488 
L 483.479769 63.617189 
L 483.617958 63.737903 
L 483.756148 64.540168 
L 484.032528 63.222962 
L 484.170718 62.201118 
L 484.308907 62.617437 
L 489.974688 58.637275 
L 490.112878 61.12613 
L 490.251068 57.739459 
L 490.389257 61.488902 
L 490.665637 57.663632 
L 490.803827 60.476723 
L 490.942017 58.76271 
L 491.080206 60.114713 
L 491.218396 57.279885 
L 491.356586 57.715289 
L 491.494776 60.163168 
L 491.632965 53.706564 
L 491.771155 58.575789 
L 491.909345 55.240465 
L 492.047535 54.608349 
L 492.185725 58.039979 
L 492.323914 56.146547 
L 492.462104 55.784064 
L 492.600294 58.023954 
L 493.014863 57.19798 
L 493.153053 57.829842 
L 493.291243 54.980621 
L 493.429433 57.23843 
L 493.567622 55.475595 
L 493.705812 55.652186 
L 493.844002 56.635123 
L 493.982192 56.361479 
L 494.258571 53.466056 
L 494.396761 53.112478 
L 494.534951 57.190804 
L 494.67314 53.389434 
L 494.81133 56.786923 
L 494.94952 57.101306 
L 495.08771 52.712618 
L 495.364089 57.142074 
L 495.502279 54.521758 
L 495.640469 54.014577 
L 495.778659 56.257929 
L 496.055038 52.636652 
L 496.193228 53.990024 
L 496.331418 57.062621 
L 496.469608 52.829917 
L 496.745987 55.601677 
L 496.884177 54.961928 
L 497.022367 51.88166 
L 497.160556 55.564635 
L 497.436936 52.001941 
L 497.575126 51.215453 
L 497.851505 55.363308 
L 497.989695 52.078882 
L 503.655476 60.360008 
L 504.622804 98.046521 
L 504.760994 98.160932 
L 504.899184 100.445516 
L 505.037374 100.7367 
L 505.175563 98.736034 
L 505.313753 99.315025 
L 505.451943 101.479618 
L 505.590133 97.318232 
L 505.866512 102.050182 
L 506.004702 100.09494 
L 506.142892 101.312387 
L 506.281082 101.057893 
L 506.419271 99.88748 
L 506.557461 99.978094 
L 506.695651 98.639575 
L 506.833841 101.390828 
L 507.11022 97.574702 
L 507.3866 101.742324 
L 507.52479 101.800967 
L 507.801169 99.260622 
L 507.939359 102.812487 
L 508.077549 97.202664 
L 508.215738 97.555996 
L 508.353928 101.840934 
L 508.630308 99.010759 
L 508.768498 102.421686 
L 508.906687 100.012006 
L 509.044877 101.309006 
L 509.183067 97.745558 
L 509.321257 99.401728 
L 509.459446 99.59224 
L 509.597636 104.263929 
L 509.735826 99.277672 
L 509.874016 100.73662 
L 510.012206 98.54264 
L 510.150395 101.666438 
L 510.288585 99.051264 
L 510.426775 103.737349 
L 510.564965 99.578836 
L 510.703154 101.332947 
L 510.841344 98.109846 
L 510.979534 99.621631 
L 511.117724 103.748218 
L 511.532293 95.895786 
L 511.670483 100.30629 
L 517.336264 48.975105 
L 517.474453 52.744276 
L 517.612643 50.014789 
L 517.750833 50.656864 
L 517.889023 52.439568 
L 518.027212 51.704818 
L 518.165402 52.940517 
L 518.303592 48.16439 
L 518.441782 52.630065 
L 518.579972 48.283263 
L 518.718161 52.053396 
L 518.856351 52.531166 
L 518.994541 50.540044 
L 519.132731 55.145602 
L 519.27092 51.343759 
L 519.40911 52.674538 
L 519.5473 52.721373 
L 519.68549 48.366863 
L 519.82368 53.053996 
L 519.961869 51.384245 
L 520.100059 52.782952 
L 520.238249 51.961787 
L 520.376439 52.531778 
L 520.514628 50.430806 
L 520.652818 53.919648 
L 520.791008 53.560616 
L 521.205577 53.568531 
L 521.343767 55.427012 
L 521.481957 55.234221 
L 521.620147 51.610837 
L 521.758336 57.640044 
L 521.896526 56.208999 
L 522.034716 52.485673 
L 522.172906 56.664897 
L 522.311095 53.833595 
L 522.449285 55.783639 
L 522.587475 56.047602 
L 522.863855 53.086679 
L 523.002044 53.80569 
L 523.140234 55.627738 
L 523.278424 53.416012 
L 523.416614 57.738736 
L 523.554803 55.258478 
L 523.692993 57.388471 
L 523.831183 57.646226 
L 523.969373 54.669541 
L 524.107563 56.51596 
L 524.245752 54.696921 
L 524.383942 57.910327 
L 524.522132 57.038287 
L 524.660322 55.018213 
L 524.798511 57.972783 
L 524.936701 56.454542 
L 525.074891 58.419198 
L 525.213081 54.991449 
L 525.351271 55.484015 
L 531.017051 63.515376 
L 531.155241 64.653711 
L 531.293431 62.865864 
L 531.56981 66.592188 
L 531.708 64.965291 
L 531.84619 64.886826 
L 531.98438 66.323396 
L 532.12257 66.47264 
L 532.260759 67.640915 
L 532.398949 64.831911 
L 532.675329 67.418186 
L 532.813518 67.773906 
L 532.951708 67.520109 
L 533.228088 65.877069 
L 533.366277 66.092706 
L 533.504467 66.909622 
L 533.642657 65.84723 
L 533.780847 69.234369 
L 533.919037 66.738915 
L 534.057226 69.412097 
L 534.195416 68.565273 
L 534.333606 72.309562 
L 534.471796 71.741257 
L 534.748175 69.867657 
L 535.024555 71.772935 
L 535.162745 71.503235 
L 535.300934 70.352037 
L 535.439124 71.129491 
L 535.577314 74.41071 
L 535.715504 69.459857 
L 535.853693 73.98574 
L 535.991883 71.443757 
L 536.268263 75.763463 
L 536.406453 74.572295 
L 536.544642 71.486478 
L 536.682832 72.618801 
L 536.821022 71.818207 
L 536.959212 75.53511 
L 537.097401 72.951135 
L 537.373781 75.305287 
L 537.511971 74.597267 
L 537.78835 71.806927 
L 538.20292 80.767465 
L 538.341109 73.944532 
L 538.479299 75.134542 
L 538.617489 78.793072 
L 538.755679 75.630647 
L 538.893868 77.332914 
L 539.032058 76.16127 
L 544.697839 87.19801 
L 544.836029 85.655632 
L 544.974219 87.596761 
L 545.112408 86.075118 
L 545.250598 87.406017 
L 545.388788 90.015582 
L 545.803357 85.191698 
L 545.941547 88.410542 
L 546.079737 88.284144 
L 546.217927 89.044293 
L 546.356116 88.489881 
L 546.494306 90.066867 
L 546.632496 93.632431 
L 546.770686 92.373598 
L 546.908875 89.526276 
L 547.047065 92.867714 
L 547.185255 89.331353 
L 547.323445 89.759878 
L 547.461635 91.711931 
L 547.599824 88.073337 
L 547.738014 91.693972 
L 547.876204 90.624747 
L 548.014394 92.000287 
L 548.152583 92.025357 
L 548.428963 89.679596 
L 548.705343 94.405629 
L 548.981722 90.471209 
L 549.258102 94.086976 
L 549.396291 93.50273 
L 549.534481 95.048806 
L 549.672671 90.969588 
L 549.810861 94.271769 
L 549.94905 92.809505 
L 550.08724 93.19851 
L 550.22543 92.532409 
L 550.36362 97.046767 
L 550.639999 92.149753 
L 550.778189 93.816031 
L 550.916379 93.181222 
L 551.054569 96.964247 
L 551.192758 94.047368 
L 551.330948 95.298674 
L 551.469138 91.084831 
L 551.745518 97.218833 
L 551.883707 95.248131 
L 552.021897 96.7473 
L 552.160087 93.723335 
L 552.298277 94.695927 
L 552.436466 93.260127 
L 552.574656 95.974032 
L 552.712846 96.206007 
L 558.378627 101.263485 
L 558.516817 98.505636 
L 558.655006 101.161085 
L 558.793196 97.794332 
L 558.931386 98.201788 
L 559.069576 101.622234 
L 559.207765 101.120018 
L 559.622335 98.351609 
L 559.760525 100.306383 
L 559.898714 98.930425 
L 560.175094 103.064603 
L 560.313284 102.075327 
L 560.451473 98.346286 
L 560.727853 101.506767 
L 560.866043 99.39724 
L 561.004232 101.233996 
L 561.142422 106.070557 
L 561.282018 217 
M 571.703731 217 
L 572.059414 100.138487 
L 572.335794 101.5299 
L 572.473984 99.342769 
L 572.750363 100.433466 
L 572.888553 99.546839 
L 573.026743 99.645767 
L 573.164933 96.488715 
L 573.303122 99.767807 
L 573.441312 98.740838 
L 573.579502 99.84284 
L 573.717692 98.252869 
L 573.855882 102.437743 
L 574.270451 96.912747 
L 574.54683 101.255281 
L 574.68502 102.226859 
L 574.82321 98.223446 
L 574.9614 100.085557 
L 575.09959 99.800893 
L 575.237779 99.898246 
L 575.375969 100.810716 
L 575.514159 98.186303 
L 575.790538 101.561818 
L 575.928728 99.292019 
L 576.066918 100.810707 
L 576.343298 96.482173 
L 576.481487 99.264759 
L 576.619677 99.057964 
L 576.757867 100.735644 
L 576.896057 100.644372 
L 577.034246 98.352243 
L 577.172436 99.646999 
L 577.310626 102.123544 
L 577.587005 97.786137 
L 577.725195 96.874645 
L 577.863385 98.829961 
L 578.001575 96.820594 
L 578.139765 101.734061 
L 578.277954 96.763832 
L 578.416144 99.580501 
L 578.554334 98.853784 
L 578.692524 99.097614 
L 578.830713 99.797468 
L 578.968903 97.590421 
L 579.107093 99.357419 
L 579.383473 96.205089 
L 579.521662 100.045927 
L 579.659852 99.649126 
L 579.798042 96.944298 
L 579.936232 96.899548 
L 580.074421 97.119931 
L 585.740202 95.340947 
L 585.878392 96.585685 
L 586.016582 95.099174 
L 586.154772 96.706313 
L 586.292961 93.460658 
L 586.431151 93.221042 
L 586.707531 97.557616 
L 586.84572 94.774583 
L 586.98391 94.519519 
L 587.1221 93.468628 
L 587.39848 94.660049 
L 587.536669 92.069079 
L 587.813049 95.583877 
L 587.951239 92.839264 
L 588.089428 92.646395 
L 588.227618 93.621131 
L 588.642187 93.116547 
L 588.918567 91.666961 
L 589.056757 93.716744 
L 589.194947 93.059739 
L 589.333136 94.448919 
L 589.471326 97.111583 
L 589.747706 92.326864 
L 589.885895 92.90023 
L 590.024085 92.724099 
L 590.162275 91.76843 
L 590.300465 93.312358 
L 590.438655 91.481649 
L 590.576844 94.937747 
L 590.715034 91.090949 
L 590.853224 91.204054 
L 590.991414 91.577362 
L 591.129603 90.881295 
L 591.267793 93.199632 
L 591.544173 91.642446 
L 591.682363 95.941332 
L 591.820552 90.597937 
L 591.958742 93.375193 
L 592.096932 91.151305 
L 592.235122 86.544441 
L 592.511501 87.988002 
L 592.649691 92.152991 
L 592.926071 87.875263 
L 593.06426 91.050782 
L 593.20245 90.432242 
L 593.34064 91.734355 
L 593.617019 88.294468 
L 593.755209 88.510806 
L 599.42099 84.181887 
L 599.55918 86.047276 
L 599.835559 82.167928 
L 599.973749 83.64637 
L 600.111939 83.342094 
L 600.250129 81.021363 
L 600.526508 84.913082 
L 600.664698 84.916 
L 600.802888 85.590022 
L 600.941077 85.498392 
L 601.079267 81.716424 
L 601.355647 84.42155 
L 601.493837 82.460084 
L 601.632026 83.653192 
L 601.770216 81.161001 
L 602.046596 85.086029 
L 602.184785 81.35253 
L 602.322975 82.436405 
L 602.599355 80.20894 
L 602.737545 82.54728 
L 602.875734 82.101047 
L 603.013924 82.087384 
L 603.152114 82.676258 
L 603.290304 80.105658 
L 603.428493 82.703647 
L 603.704873 80.589851 
L 603.843063 79.430778 
L 603.981253 80.195035 
L 604.119442 80.072729 
L 604.257632 80.103344 
L 604.395822 80.998047 
L 604.534012 80.60825 
L 604.672201 82.747985 
L 604.948581 77.149014 
L 605.22496 80.01449 
L 605.50134 75.663032 
L 605.63953 81.994753 
L 605.77772 76.742086 
L 605.915909 79.226185 
L 606.054099 79.304226 
L 606.192289 82.18807 
L 606.468668 78.581175 
L 606.606858 81.000347 
L 606.745048 77.562829 
L 606.883238 77.128716 
L 607.021428 75.899473 
L 607.159617 78.169586 
L 607.297807 75.340188 
L 607.435997 77.783555 
L 612.963588 71.208018 
L 613.101778 72.184597 
L 613.239967 74.209355 
L 613.378157 72.175946 
L 613.516347 73.56547 
L 613.654537 70.439201 
L 613.792727 71.467616 
L 613.930916 71.148158 
L 614.069106 74.473987 
L 614.207296 70.718174 
L 614.345486 70.424049 
L 614.483675 67.982241 
L 614.760055 72.248835 
L 614.898245 68.948984 
L 615.312814 73.15189 
L 615.451004 69.056823 
L 615.589194 72.003502 
L 615.865573 69.283216 
L 616.003763 72.120074 
L 616.141953 67.225013 
L 616.418332 71.259271 
L 616.694712 68.711776 
L 616.832902 69.536033 
L 617.109281 67.879568 
L 617.385661 70.39458 
L 617.52385 68.052023 
L 617.66204 71.21046 
L 617.80023 67.462868 
L 617.93842 69.757899 
L 618.07661 66.92329 
L 618.214799 68.265332 
L 618.352989 68.221018 
L 618.491179 66.645051 
L 618.629369 69.234407 
L 618.767558 66.931247 
L 618.905748 67.792541 
L 619.043938 70.421333 
L 619.182128 65.352375 
L 619.320318 67.352624 
L 619.458507 65.146186 
L 619.596697 65.860179 
L 619.734887 65.218196 
L 619.873077 65.794777 
L 620.011266 64.797289 
L 620.149456 66.353938 
L 620.425836 64.417747 
L 620.564026 66.337925 
L 620.702215 65.12584 
L 620.840405 65.460769 
L 620.978595 63.704803 
L 621.116785 63.447479 
L 626.644376 61.947808 
L 626.782565 59.573106 
L 626.920755 61.00487 
L 627.197135 58.621579 
L 627.335324 58.471789 
L 627.473514 58.933143 
L 627.611704 60.451937 
L 627.749894 60.423258 
L 627.888084 62.908573 
L 628.164463 58.937338 
L 628.302653 60.231951 
L 628.440843 59.952565 
L 628.579032 60.851919 
L 628.855412 57.791609 
L 628.993602 58.644974 
L 629.131792 58.713542 
L 629.269981 57.979622 
L 629.408171 59.816572 
L 629.684551 57.288271 
L 629.82274 58.828654 
L 629.96093 54.03163 
L 630.09912 61.523469 
L 630.23731 58.092809 
L 630.3755 59.609947 
L 630.790069 55.737461 
L 630.928259 54.21919 
L 631.066448 54.572368 
L 631.204638 56.968563 
L 631.342828 56.806245 
L 631.481018 58.738626 
L 631.619208 55.573849 
L 631.757397 56.903123 
L 631.895587 52.427391 
L 632.033777 58.74423 
L 632.171967 58.529775 
L 632.310156 59.248819 
L 632.448346 58.099491 
L 632.586536 58.250448 
L 632.862915 56.64287 
L 633.001105 53.449288 
L 633.277485 53.388705 
L 633.415675 54.720041 
L 633.692054 53.077117 
L 633.830244 56.042491 
L 633.968434 55.557531 
L 634.244813 53.03948 
L 634.383003 54.306245 
L 634.521193 54.00599 
L 634.659383 54.831561 
L 634.797572 54.659178 
L 640.325163 52.650477 
L 640.463353 55.421306 
L 640.739733 48.961829 
L 640.877922 49.382649 
L 641.016112 52.476323 
L 641.154302 52.923537 
L 641.292492 51.746751 
L 641.430682 52.765538 
L 641.568871 47.748553 
L 641.707061 50.699977 
L 641.845251 50.810041 
L 641.983441 51.612178 
L 642.25982 48.992773 
L 642.39801 51.725695 
L 642.5362 50.906576 
L 642.812579 55.941608 
L 643.088959 69.390919 
L 643.779908 100.34406 
L 643.918097 100.177608 
L 644.056287 99.503396 
L 644.194477 101.23319 
L 644.609046 98.567356 
L 644.747236 100.367687 
L 644.885426 99.750126 
L 645.161805 101.200663 
L 645.299995 98.333712 
L 645.438185 100.468148 
L 645.576375 100.876779 
L 645.714565 98.9312 
L 645.852754 100.387089 
L 645.990944 104.544495 
L 646.129134 98.12289 
L 646.543703 103.723021 
L 646.681893 99.109695 
L 646.820083 103.43068 
L 647.096462 99.992893 
L 647.234652 101.168341 
L 647.372842 98.470257 
L 647.511032 100.425016 
L 647.787411 98.72489 
L 647.925601 99.709644 
L 648.063791 99.815204 
L 648.34017 100.171519 
L 648.47836 101.016768 
L 654.005951 101.577386 
L 654.144141 98.802024 
L 654.282331 100.724895 
L 654.42052 98.916618 
L 654.55871 100.136601 
L 654.6969 102.589677 
L 654.83509 97.3357 
L 654.973279 102.319698 
L 655.249659 97.229738 
L 655.940608 62.379505 
L 656.355177 49.51549 
L 656.493367 50.281639 
L 656.631557 52.180686 
L 656.907936 51.514858 
L 657.046126 49.612523 
L 657.184316 50.432406 
L 657.322506 48.945178 
L 657.598885 50.490419 
L 657.737075 54.17176 
L 657.875265 52.815007 
L 658.013455 49.008346 
L 658.428024 52.590139 
L 658.704403 49.155053 
L 658.842593 50.631224 
L 658.980783 54.728372 
L 659.257163 52.573257 
L 659.395352 54.394248 
L 659.671732 50.272809 
L 659.948111 53.191239 
L 660.224491 52.050368 
L 660.362681 51.727972 
L 660.50087 54.982899 
L 660.63906 54.8751 
L 660.77725 52.772832 
L 660.91544 53.937021 
L 661.05363 51.371361 
L 661.191819 52.618791 
L 661.330009 56.20662 
L 661.468199 52.031075 
L 661.744578 57.090957 
L 661.882768 56.127496 
L 662.020958 51.589715 
L 662.159148 56.61332 
L 667.686739 61.311512 
L 667.824929 60.057361 
L 667.963118 60.941074 
L 668.101308 59.320083 
L 668.239498 62.242404 
L 668.377688 59.226907 
L 668.654067 64.172469 
L 668.792257 61.236892 
L 668.930447 63.731543 
L 669.345016 62.181089 
L 669.483206 64.489238 
L 669.621396 62.809166 
L 669.759585 65.809502 
L 669.897775 63.933774 
L 670.035965 65.347715 
L 670.312345 60.954074 
L 670.450534 66.747007 
L 670.588724 66.083967 
L 670.726914 67.369956 
L 670.865104 63.608745 
L 671.003293 66.285031 
L 671.141483 66.348494 
L 671.417863 64.207043 
L 671.556052 68.960457 
L 671.832432 67.499226 
L 671.970622 68.620704 
L 672.108812 68.156127 
L 672.247001 68.952969 
L 672.523381 67.485683 
L 672.661571 71.613415 
L 672.93795 68.608774 
L 673.07614 70.126666 
L 673.35252 68.202096 
L 673.767089 72.209816 
L 673.905279 71.309208 
L 674.181658 74.083614 
L 674.458038 68.360685 
L 674.596228 70.359055 
L 674.734417 69.758844 
L 674.872607 69.849394 
L 675.148987 70.964489 
L 675.287176 76.119951 
L 675.425366 75.32116 
L 675.701746 72.024037 
L 675.839936 72.520927 
L 681.367527 82.048438 
L 681.643906 82.980188 
L 681.782096 82.897944 
L 681.920286 82.143896 
L 682.058475 84.332717 
L 682.196665 82.895693 
L 682.473045 85.489216 
L 682.611234 86.120478 
L 682.749424 85.406226 
L 682.887614 85.859301 
L 683.025804 82.997806 
L 683.302183 88.892228 
L 683.578563 87.093606 
L 683.716753 87.979912 
L 683.854942 85.204532 
L 683.993132 87.893716 
L 684.131322 87.036823 
L 684.269512 87.7569 
L 684.407702 87.375872 
L 684.545891 85.532548 
L 684.684081 90.714116 
L 684.960461 86.144876 
L 685.09865 90.63875 
L 685.23684 88.155917 
L 685.37503 88.128847 
L 685.51322 87.409276 
L 685.65141 87.962329 
L 685.789599 87.456711 
L 685.927789 90.462612 
L 686.065979 90.042223 
L 686.204169 86.941791 
L 686.480548 94.119907 
L 686.618738 91.173072 
L 686.756928 91.080984 
L 686.895118 88.229634 
L 687.033307 91.947063 
L 687.171497 89.264877 
L 687.309687 90.3582 
L 687.447877 93.804647 
L 687.724256 90.024629 
L 688.000636 91.800721 
L 688.277015 93.247702 
L 688.553395 92.45548 
L 688.691585 93.109165 
L 688.967964 96.128282 
L 689.244344 91.57243 
L 689.382533 96.338031 
L 689.520723 91.70614 
L 695.048314 99.044214 
L 695.186504 100.462733 
L 695.324694 99.038636 
L 695.462884 98.790467 
L 695.739263 102.708417 
L 696.015643 96.640739 
L 696.153832 101.467102 
L 696.292022 96.817696 
L 696.430212 100.540791 
L 696.706592 97.469364 
L 696.844781 99.303315 
L 696.982971 98.897045 
L 697.121161 99.14277 
L 697.259351 98.507619 
L 697.39754 101.076625 
L 697.53573 96.203162 
L 697.81211 101.770477 
L 697.9503 99.804195 
L 698.088489 102.069919 
L 698.226679 99.681662 
L 698.503059 102.139865 
L 698.779438 95.949928 
L 699.055818 100.957651 
L 699.194007 101.999662 
L 699.332197 99.597869 
L 699.608577 101.60536 
L 699.746767 100.698813 
L 699.884956 97.705453 
L 700.023146 98.550495 
L 700.161336 100.103173 
L 700.299526 100.397556 
L 700.437715 151.036073 
L 700.500017 217 
L 700.500017 217 
" clip-path="url(#pe3cd8d7667)" style="fill: none; stroke: #1f77b4; stroke-width: 1.5; stroke-linecap: square"/>
   </g>
   <g id="patch_8">
    <path d="M 413.438281 182.64351 
L 413.438281 18.118365 
" style="fill: none; stroke: #000000; stroke-width: 0.8; stroke-linejoin: miter; stroke-linecap: square"/>
   </g>
   <g id="patch_9">
    <path d="M 716.99976 182.64351 
L 716.99976 18.118365 
" style="fill: none; stroke: #000000; stroke-width: 0.8; stroke-linejoin: miter; stroke-linecap: square"/>
   </g>
   <g id="patch_10">
    <path d="M 413.438281 182.64351 
L 716.99976 182.64351 
" style="fill: none; stroke: #000000; stroke-width: 0.8; stroke-linejoin: miter; stroke-linecap: square"/>
   </g>
   <g id="patch_11">
    <path d="M 413.438281 18.118365 
L 716.99976 18.118365 
" style="fill: none; stroke: #000000; stroke-width: 0.8; stroke-linejoin: miter; stroke-linecap: square"/>
   </g>
   <g id="text_29">
    <!-- Phase curve -->
    <g transform="translate(528.586208 12.118365) scale(0.12 -0.12)">
     <defs>
      <path id="DejaVuSans-50" d="M 1259 4147 
L 1259 2394 
L 2053 2394 
Q 2494 2394 2734 2622 
Q 2975 2850 2975 3272 
Q 2975 3691 2734 3919 
Q 2494 4147 2053 4147 
L 1259 4147 
z
M 628 4666 
L 2053 4666 
Q 2838 4666 3239 4311 
Q 3641 3956 3641 3272 
Q 3641 2581 3239 2228 
Q 2838 1875 2053 1875 
L 1259 1875 
L 1259 0 
L 628 0 
L 628 4666 
z
" transform="scale(0.015625)"/>
      <path id="DejaVuSans-68" d="M 3513 2113 
L 3513 0 
L 2938 0 
L 2938 2094 
Q 2938 2591 2744 2837 
Q 2550 3084 2163 3084 
Q 1697 3084 1428 2787 
Q 1159 2491 1159 1978 
L 1159 0 
L 581 0 
L 581 4863 
L 1159 4863 
L 1159 2956 
Q 1366 3272 1645 3428 
Q 1925 3584 2291 3584 
Q 2894 3584 3203 3211 
Q 3513 2838 3513 2113 
z
" transform="scale(0.015625)"/>
      <path id="DejaVuSans-63" d="M 3122 3366 
L 3122 2828 
Q 2878 2963 2633 3030 
Q 2388 3097 2138 3097 
Q 1578 3097 1268 2742 
Q 959 2388 959 1747 
Q 959 1106 1268 751 
Q 1578 397 2138 397 
Q 2388 397 2633 464 
Q 2878 531 3122 666 
L 3122 134 
Q 2881 22 2623 -34 
Q 2366 -91 2075 -91 
Q 1284 -91 818 406 
Q 353 903 353 1747 
Q 353 2603 823 3093 
Q 1294 3584 2113 3584 
Q 2378 3584 2631 3529 
Q 2884 3475 3122 3366 
z
" transform="scale(0.015625)"/>
      <path id="DejaVuSans-76" d="M 191 3500 
L 800 3500 
L 1894 563 
L 2988 3500 
L 3597 3500 
L 2284 0 
L 1503 0 
L 191 3500 
z
" transform="scale(0.015625)"/>
     </defs>
     <use xlink:href="#DejaVuSans-50"/>
     <use xlink:href="#DejaVuSans-68" x="60.302734"/>
     <use xlink:href="#DejaVuSans-61" x="123.681641"/>
     <use xlink:href="#DejaVuSans-73" x="184.960938"/>
     <use xlink:href="#DejaVuSans-65" x="237.060547"/>
     <use xlink:href="#DejaVuSans-20" x="298.583984"/>
     <use xlink:href="#DejaVuSans-63" x="330.371094"/>
     <use xlink:href="#DejaVuSans-75" x="385.351562"/>
     <use xlink:href="#DejaVuSans-72" x="448.730469"/>
     <use xlink:href="#DejaVuSans-76" x="489.84375"/>
     <use xlink:href="#DejaVuSans-65" x="549.023438"/>
    </g>
   </g>
  </g>
 </g>
 <defs>
  <clipPath id="p3abcf58314">
   <rect x="52.30649" y="18.118365" width="303.561479" height="164.525145"/>
  </clipPath>
  <clipPath id="pe3cd8d7667">
   <rect x="413.438281" y="18.118365" width="303.561479" height="164.525145"/>
  </clipPath>
 </defs>
</svg>
